<svg xmlns="http://www.w3.org/2000/svg" xmlns:v="https://svgstorm.com"
viewBox = "0 0 500 500"
width="500"
height="500">
<g fill="None" fill-opacity="0.0" stroke="#E5EFF5" stroke-opacity="1.00" stroke-width="0.3"><path d="
M 0.00 500.00 
L 500.00 500.00
L 500.00 0.00
L 0.00 0.00
L 0.00 500.00
M 246.00 143.00 
C 247.25 144.69 249.70 143.12 251.00 144.00
C 253.77 136.10 258.54 134.70 266.00 131.00
C 285.09 109.10 319.29 105.29 340.00 126.00
C 385.39 171.39 304.56 219.16 293.00 167.00
C 292.34 164.03 292.54 161.86 293.00 159.00
C 293.23 154.72 294.07 152.39 296.00 149.00
C 304.66 133.79 326.65 130.76 338.00 145.00
C 338.89 145.58 340.19 145.09 340.00 145.00
C 332.23 131.30 316.54 129.71 302.00 130.00
C 296.27 130.11 291.62 131.58 286.00 132.00
C 266.15 143.65 246.86 157.63 263.00 185.00
C 263.82 185.64 264.67 186.89 265.00 188.00
C 265.28 188.93 266.03 190.43 264.00 191.00
C 287.75 204.52 301.76 213.67 325.70 229.30 C 349.63 244.93 353.81 271.01 356.00 297.00
C 361.35 360.55 256.46 369.19 220.00 354.00
C 216.76 353.29 213.27 352.80 210.00 352.00
C 207.24 351.33 204.71 349.98 202.00 349.00
C 203.50 347.24 207.49 348.93 209.00 350.00
C 210.58 350.23 212.40 350.00 214.00 350.00
C 218.31 350.00 223.80 350.93 228.00 350.00
C 240.61 347.21 249.74 330.98 262.00 331.00
C 259.36 327.26 272.05 326.12 267.00 323.00
C 271.52 322.61 273.00 321.14 278.00 318.00
C 279.02 319.48 276.17 321.34 278.00 322.00
C 290.49 301.41 259.59 321.69 249.92 332.92 C 240.24 344.14 210.71 347.72 195.92 338.08 C 181.14 328.43 168.98 310.67 174.00 291.00
C 181.19 262.83 218.87 257.65 233.00 283.00
C 239.99 295.54 237.32 305.00 229.08 317.08 C 220.85 329.17 206.17 323.41 195.00 324.00
C 195.24 324.31 195.00 325.00 195.00 325.00
C 197.06 329.20 201.18 329.83 205.00 331.00
C 223.87 332.97 240.35 309.82 243.00 294.00
C 242.88 292.18 240.65 289.26 243.00 288.00
C 253.22 304.36 246.54 327.91 229.00 336.00
C 254.21 336.56 278.03 308.67 269.00 284.00
C 274.33 282.80 278.46 285.57 282.00 289.00
C 285.27 282.96 285.26 275.98 285.00 269.00
C 283.05 267.28 282.98 263.43 282.00 261.00
C 284.58 262.63 284.95 266.29 286.00 269.00
C 289.38 278.17 290.03 287.88 286.00 297.00
C 287.41 297.09 289.65 298.25 291.00 297.00
C 299.96 250.56 243.89 209.46 204.00 206.00
C 219.16 216.60 238.96 220.71 253.00 234.00
C 243.27 229.55 235.67 246.28 248.00 246.00
C 259.88 228.66 287.42 264.59 280.00 281.00
C 250.40 245.15 190.84 238.76 176.00 189.00
C 174.91 185.08 174.23 181.19 174.00 177.00
C 173.44 173.58 173.52 170.34 174.00 167.00
C 174.40 156.54 178.11 146.58 184.00 138.00
C 208.21 102.71 257.24 97.67 296.00 105.00
C 276.00 107.97 249.63 120.29 246.00 143.00
M 359.00 144.00 
C 372.91 165.34 360.81 201.11 333.00 203.00
C 329.51 203.62 326.43 203.61 323.00 203.00
C 317.11 202.60 311.02 200.21 307.00 196.00
C 310.93 196.83 314.70 198.50 319.00 198.00
C 320.33 198.00 321.67 198.00 323.00 198.00
C 322.61 197.90 321.17 196.57 321.00 196.00
C 343.30 192.38 355.09 172.12 360.00 153.00
C 359.71 150.37 357.98 147.68 358.00 145.00
C 356.68 144.61 355.14 141.30 355.00 140.00
C 356.57 140.96 358.25 142.32 359.00 144.00
M 289.00 185.00 
C 301.92 183.30 303.34 208.19 287.00 200.00
C 288.74 197.55 294.86 194.78 291.00 190.00
C 284.28 197.68 279.04 183.38 289.00 185.00
M 241.00 258.00 
C 236.15 253.33 230.39 258.50 234.00 264.00
C 216.93 267.02 235.96 241.64 241.00 258.00
M 236.00 261.00 
C 254.47 260.19 238.11 277.91 236.00 261.00
M 156.00 392.00 
C 177.79 396.77 152.87 421.00 152.00 402.00
C 154.45 403.86 160.81 405.89 161.00 401.00
C 129.96 393.79 179.44 382.41 156.00 392.00
M 190.00 392.00 
C 188.86 392.99 185.35 391.25 184.00 392.00
C 184.00 397.67 184.00 403.33 184.00 409.00
C 175.10 410.61 180.44 398.22 179.00 393.00
C 175.00 394.78 169.14 390.74 173.00 387.00
C 178.95 386.46 185.04 387.40 191.00 387.00
C 190.61 388.57 191.94 391.22 190.00 392.00
M 205.00 395.00 
C 208.32 391.59 209.37 384.81 216.00 387.00
C 212.98 394.23 205.51 399.85 208.00 409.00
C 200.58 407.59 201.34 393.25 195.00 387.00
C 200.61 385.46 202.92 391.17 205.00 395.00
M 228.00 387.00 
C 228.00 392.67 228.00 398.33 228.00 404.00
C 231.33 404.00 234.67 404.00 238.00 404.00
C 239.76 412.66 228.00 407.70 223.00 409.00
C 225.13 402.26 218.04 386.69 228.00 387.00
M 260.00 388.00 
C 260.58 389.00 259.56 390.92 260.00 392.00
C 256.67 392.00 253.33 392.00 250.00 392.00
C 248.37 397.50 254.75 395.78 258.00 396.00
C 260.39 403.28 248.38 396.78 250.00 404.00
C 253.67 404.00 257.33 404.00 261.00 404.00
C 262.61 412.90 250.22 407.56 245.00 409.00
C 245.00 402.00 245.00 395.00 245.00 388.00
C 246.29 386.16 258.87 386.04 260.00 388.00
M 285.00 388.00 
C 286.65 387.26 288.73 386.52 291.00 387.00
C 290.32 390.40 286.56 392.90 284.00 395.00
C 280.15 401.26 289.24 403.54 292.00 409.00
C 284.98 411.22 281.78 404.27 277.00 401.00
C 277.24 405.04 277.98 410.80 272.00 409.00
C 272.00 401.67 272.00 394.33 272.00 387.00
C 277.46 385.44 277.40 391.33 277.00 395.00
C 280.11 393.27 281.92 389.67 285.00 388.00
M 305.00 387.00 
C 299.37 407.22 319.44 407.14 314.00 387.00
C 324.07 387.88 320.13 410.47 308.98 409.98 C 297.82 409.48 293.71 386.45 305.00 387.00
M 330.00 409.00 
C 326.00 406.47 330.08 390.39 330.00 387.00
C 335.09 390.08 339.18 394.57 344.00 398.00
C 344.00 394.33 344.00 390.67 344.00 387.00
C 353.90 386.64 346.90 402.29 349.00 409.00
C 343.39 407.23 339.79 401.38 335.00 398.00
C 335.00 401.67 335.00 405.33 335.00 409.00
C 333.33 409.00 331.67 409.00 330.00 409.00
M 371.00 388.00 
C 373.73 390.73 371.72 399.09 371.00 402.00
C 367.35 416.73 354.16 402.62 360.08 403.08 C 366.01 403.54 367.26 384.26 371.00 388.00
M 189.00 435.00 
C 188.79 430.89 185.85 421.53 188.00 417.00
C 188.18 416.62 192.86 432.03 189.00 435.00
M 252.00 417.00 
C 252.56 419.52 250.81 423.30 253.00 425.00
C 259.20 420.52 262.10 431.50 259.00 435.00
C 256.92 432.90 258.51 428.85 258.00 426.00
C 252.54 424.61 251.39 430.98 252.00 435.00
C 250.38 430.08 250.31 421.85 252.00 417.00
M 389.00 428.00 
C 391.78 427.19 391.58 423.05 395.00 424.00
C 390.44 427.35 390.93 431.49 395.00 435.00
C 390.20 432.56 389.96 430.47 387.00 435.00
C 387.66 429.17 385.68 422.01 388.00 417.00
C 390.16 419.76 388.45 424.49 389.00 428.00
M 113.00 435.00 
C 120.35 433.59 116.65 423.89 119.00 418.00
C 120.45 423.10 122.86 437.04 113.00 435.00
M 322.00 422.00 
C 303.12 412.83 335.97 445.31 311.00 431.00
C 332.82 442.74 298.51 408.54 322.00 422.00
M 241.00 420.00 
C 242.87 425.05 241.42 429.21 240.00 435.00
C 238.30 431.18 239.72 426.23 236.00 424.00
C 240.31 425.68 237.47 419.50 241.00 420.00
M 293.00 424.00 
C 289.26 425.99 290.78 431.39 289.00 435.00
C 287.65 429.07 286.09 425.28 288.00 420.00
C 291.34 419.51 288.69 425.58 293.00 424.00
M 139.00 430.00 
C 136.00 430.00 133.00 430.00 130.00 430.00
C 129.81 435.38 136.32 431.20 138.00 433.00
C 120.50 442.38 132.78 411.48 139.00 430.00
M 150.00 432.00 
C 151.62 429.90 152.27 426.71 153.00 424.00
C 155.28 425.98 155.66 429.35 157.00 432.00
C 159.43 430.11 158.08 424.28 162.00 424.00
C 161.70 428.33 158.06 431.60 158.00 436.00
C 154.91 434.51 155.85 429.75 153.00 428.00
C 153.60 431.04 150.39 432.93 151.00 436.00
C 147.26 433.25 147.24 427.86 145.00 424.00
C 148.47 424.48 148.38 429.45 150.00 432.00
M 180.00 430.00 
C 177.00 430.00 174.00 430.00 171.00 430.00
C 170.80 435.38 177.32 431.20 179.00 433.00
C 161.50 442.38 173.78 411.48 180.00 430.00
M 204.00 424.00 
C 200.16 426.00 200.17 430.98 199.00 435.00
C 196.84 432.24 198.55 427.51 198.00 424.00
C 200.15 425.01 201.61 424.01 204.00 424.00
M 214.00 431.00 
C 216.79 429.54 215.66 424.24 219.00 424.00
C 216.58 429.56 215.44 438.12 210.00 441.00
C 214.30 435.52 212.65 429.26 209.00 424.00
C 212.33 424.11 213.22 428.43 214.00 431.00
M 278.00 424.00 
C 278.00 427.67 278.00 431.33 278.00 435.00
C 264.87 439.00 264.84 420.00 278.00 424.00
M 334.00 434.00 
C 331.50 435.33 334.57 439.74 332.00 441.00
C 329.74 436.25 331.62 429.51 331.00 424.00
C 341.57 418.83 346.27 438.11 334.00 434.00
M 360.00 430.00 
C 357.00 430.00 354.00 430.00 351.00 430.00
C 350.81 435.38 357.32 431.20 359.00 433.00
C 341.69 442.14 354.01 411.66 360.00 430.00
M 378.00 424.00 
C 378.00 427.67 378.00 431.33 378.00 435.00
C 364.87 439.00 364.84 420.00 378.00 424.00
M 409.00 427.00 
C 406.56 426.70 405.60 424.49 403.00 426.00
C 412.48 428.55 408.42 440.11 401.00 432.00
C 403.31 432.86 407.89 435.95 408.00 431.00
C 397.21 432.06 405.10 417.71 409.00 427.00 Z"/>
</g>
<g fill="None" fill-opacity="0.0" stroke="#305270" stroke-opacity="1.00" stroke-width="0.3"><path d="
M 184.00 138.00 
C 184.01 137.95 184.74 140.29 184.00 141.00
C 190.90 141.06 200.12 128.49 208.00 134.00
C 207.80 130.47 212.26 131.18 214.00 129.00
C 228.24 113.60 251.15 107.05 271.00 110.00
C 245.06 119.58 222.23 148.90 233.00 177.00
C 237.14 181.57 240.73 174.33 244.00 177.00
C 244.11 176.00 243.53 174.27 245.00 174.00
C 241.31 166.29 241.80 157.71 242.00 149.00
C 244.27 149.59 245.90 148.15 248.00 148.00
C 248.79 147.41 249.46 145.78 250.00 145.00
C 248.43 145.30 246.40 144.75 246.00 143.00
C 249.63 120.29 276.00 107.97 296.00 105.00
C 257.24 97.67 208.21 102.71 184.00 138.00 Z"/>
</g>
<g fill="None" fill-opacity="0.0" stroke="#CDE3EA" stroke-opacity="1.00" stroke-width="0.3"><path d="
M 214.00 129.00 
C 203.04 140.86 198.01 160.12 202.00 176.00
C 213.68 222.42 291.93 224.36 295.00 281.00
C 295.42 283.58 296.19 286.76 296.00 290.00
C 297.59 286.00 298.21 291.71 301.00 291.00
C 301.53 288.81 299.86 285.38 302.00 284.00
C 300.30 239.57 256.64 220.40 227.00 197.00
C 224.71 195.19 222.71 193.30 221.00 191.00
C 216.13 184.45 212.45 177.25 212.00 169.00
C 211.44 165.56 211.45 162.38 212.00 159.00
C 212.25 154.37 213.20 150.18 215.00 146.00
C 222.40 128.86 240.20 116.02 258.00 113.00
C 254.77 115.16 251.40 117.81 248.00 120.00
C 244.49 123.06 240.01 127.55 237.00 131.00
C 233.12 136.22 228.63 143.07 227.00 149.00
C 215.62 190.37 256.46 214.57 286.08 238.92 C 315.71 263.27 329.90 310.72 290.00 337.00
C 311.31 329.20 321.83 300.14 319.00 278.00
C 324.37 279.21 325.47 286.16 325.00 291.00
C 327.37 289.97 324.54 285.96 327.00 285.00
C 322.59 234.88 250.96 220.62 233.00 177.00
C 222.23 148.90 245.06 119.58 271.00 110.00
C 251.15 107.05 228.24 113.60 214.00 129.00 Z"/>
</g>
<g fill="None" fill-opacity="0.0" stroke="#17374F" stroke-opacity="1.00" stroke-width="0.3"><path d="
M 266.00 131.00 
C 253.32 145.55 251.44 167.39 261.00 184.00
C 261.48 184.52 262.50 184.61 263.00 185.00
C 246.86 157.63 266.15 143.65 286.00 132.00
C 291.62 131.58 296.27 130.11 302.00 130.00
C 303.59 129.63 306.15 126.20 309.00 128.00
C 307.04 125.34 301.89 128.72 300.00 126.00
C 298.75 125.65 296.49 126.81 296.00 125.00
C 306.75 119.68 320.39 121.21 330.00 128.00
C 331.12 128.81 333.69 130.14 333.00 132.00
C 337.54 130.46 338.31 131.66 343.00 131.00
C 342.78 129.07 338.10 127.45 340.00 126.00
C 319.29 105.29 285.09 109.10 266.00 131.00
M 299.00 118.00 
C 293.53 123.16 285.98 126.70 278.00 126.00
C 283.58 120.68 291.16 118.02 299.00 118.00
M 280.00 134.00 
C 275.52 138.24 269.16 137.35 264.00 140.00
C 265.63 133.83 275.06 129.04 280.00 134.00 Z"/>
</g>
<g fill="None" fill-opacity="0.0" stroke="#305270" stroke-opacity="1.00" stroke-width="0.3"><path d="
M 215.00 146.00 
C 217.56 143.56 222.85 145.43 225.00 145.00
C 226.02 147.88 224.31 149.97 227.00 149.00
C 228.63 143.07 233.12 136.22 237.00 131.00
C 239.97 127.00 244.06 122.93 248.00 120.00
C 251.40 117.81 254.77 115.16 258.00 113.00
C 240.20 116.02 222.40 128.86 215.00 146.00 Z"/>
</g>
<g fill="None" fill-opacity="0.0" stroke="#B9CCD4" stroke-opacity="1.00" stroke-width="0.3"><path d="
M 299.00 118.00 
C 291.16 118.02 283.58 120.68 278.00 126.00
C 285.98 126.70 293.53 123.16 299.00 118.00 Z"/>
</g>
<g fill="None" fill-opacity="0.0" stroke="#92A6AF" stroke-opacity="1.00" stroke-width="0.3"><path d="
M 237.00 131.00 
C 240.01 127.55 244.49 123.06 248.00 120.00
C 244.06 122.93 239.97 127.00 237.00 131.00 Z"/>
</g>
<g fill="None" fill-opacity="0.0" stroke="#B9CCD4" stroke-opacity="1.00" stroke-width="0.3"><path d="
M 300.00 126.00 
C 311.54 127.02 321.47 124.06 332.00 131.00
C 331.45 130.17 330.68 128.61 330.00 128.00
C 320.39 121.21 306.75 119.68 296.00 125.00
C 296.49 126.81 298.75 125.65 300.00 126.00 Z"/>
</g>
<g fill="None" fill-opacity="0.0" stroke="#132737" stroke-opacity="1.00" stroke-width="0.3"><path d="
M 300.00 126.00 
C 301.89 128.72 307.04 125.34 309.00 128.00
C 306.15 126.20 303.59 129.63 302.00 130.00
C 316.54 129.71 332.23 131.30 340.00 145.00
C 341.04 146.83 341.35 147.82 342.00 150.00
C 342.35 151.18 342.82 152.34 343.00 154.00
C 345.79 179.34 304.94 192.16 302.00 164.00
C 301.90 163.02 302.02 161.98 302.00 161.00
C 301.95 158.48 302.24 156.90 303.00 155.00
C 303.17 154.57 302.82 153.42 303.00 153.00
C 302.98 152.97 294.29 149.70 296.00 149.00
C 294.07 152.39 293.23 154.72 293.00 159.00
C 292.86 161.56 292.74 164.45 293.00 167.00
C 304.56 219.16 385.39 171.39 340.00 126.00
C 338.10 127.45 342.78 129.07 343.00 131.00
C 338.31 131.66 337.54 130.46 333.00 132.00
C 332.75 132.08 332.21 131.31 332.00 131.00
C 321.47 124.06 311.54 127.02 300.00 126.00 Z"/>
</g>
<g fill="None" fill-opacity="0.0" stroke="#5E7485" stroke-opacity="1.00" stroke-width="0.3"><path d="
M 332.00 131.00 
C 332.21 131.31 332.75 132.08 333.00 132.00
C 333.69 130.14 331.12 128.81 330.00 128.00
C 330.68 128.61 331.45 130.17 332.00 131.00 Z"/>
</g>
<g fill="None" fill-opacity="0.0" stroke="#17374F" stroke-opacity="1.00" stroke-width="0.3"><path d="
M 184.00 138.00 
C 178.11 146.58 174.40 156.54 174.00 167.00
C 173.87 170.29 173.82 173.72 174.00 177.00
C 174.23 181.19 174.91 185.08 176.00 189.00
C 176.08 188.47 178.83 186.67 179.00 186.00
C 179.81 192.67 187.97 186.31 189.00 192.00
C 188.64 185.19 185.33 179.10 186.00 172.00
C 188.96 173.03 193.95 172.57 196.00 170.00
C 196.40 173.79 198.79 174.91 202.00 176.00
C 198.01 160.12 203.04 140.86 214.00 129.00
C 212.26 131.18 207.80 130.47 208.00 134.00
C 200.12 128.49 190.90 141.06 184.00 141.00
C 184.74 140.29 184.01 137.95 184.00 138.00 Z"/>
</g>
<g fill="None" fill-opacity="0.0" stroke="#B9CCD4" stroke-opacity="1.00" stroke-width="0.3"><path d="
M 251.00 144.00 
C 250.63 145.06 250.35 146.84 248.00 148.00
C 245.90 148.15 244.27 149.59 242.00 149.00
C 241.80 157.71 241.31 166.29 245.00 174.00
C 249.11 182.60 256.32 186.63 264.00 191.00
C 266.03 190.43 265.28 188.93 265.00 188.00
C 265.44 189.14 261.55 184.95 261.00 184.00
C 251.44 167.39 253.32 145.55 266.00 131.00
C 258.54 134.70 253.77 136.10 251.00 144.00 Z"/>
</g>
<g fill="None" fill-opacity="0.0" stroke="#CDE3EA" stroke-opacity="1.00" stroke-width="0.3"><path d="
M 280.00 134.00 
C 275.06 129.04 265.63 133.83 264.00 140.00
C 269.16 137.35 275.52 138.24 280.00 134.00 Z"/>
</g>
<g fill="None" fill-opacity="0.0" stroke="#305270" stroke-opacity="1.00" stroke-width="0.3"><path d="
M 296.00 149.00 
C 294.29 149.70 302.98 152.97 303.00 153.00
C 305.31 147.54 312.43 143.98 318.00 144.00
C 318.87 144.00 320.17 143.77 321.00 144.00
C 323.64 144.72 322.66 147.76 324.00 149.00
C 327.96 149.39 331.61 152.29 333.00 156.00
C 333.21 154.64 335.98 152.81 336.00 151.00
C 339.48 150.23 342.11 153.24 343.00 154.00
C 342.82 152.34 342.35 151.18 342.00 150.00
C 342.30 150.52 338.93 146.16 338.00 145.00
C 326.65 130.76 304.66 133.79 296.00 149.00 Z"/>
</g>
<g fill="None" fill-opacity="0.0" stroke="#92A6AF" stroke-opacity="1.00" stroke-width="0.3"><path d="
M 358.00 145.00 
C 358.00 144.66 359.02 144.12 359.00 144.00
C 358.25 142.32 356.57 140.96 355.00 140.00
C 355.14 141.30 356.68 144.61 358.00 145.00 Z"/>
</g>
<g fill="None" fill-opacity="0.0" stroke="#92A6AF" stroke-opacity="1.00" stroke-width="0.3"><path d="
M 248.00 148.00 
C 250.35 146.84 250.63 145.06 251.00 144.00
C 249.70 143.12 247.25 144.69 246.00 143.00
C 246.40 144.75 248.43 145.30 250.00 145.00
C 249.46 145.78 248.79 147.41 248.00 148.00 Z"/>
</g>
<g fill="None" fill-opacity="0.0" stroke="#132737" stroke-opacity="1.00" stroke-width="0.3"><path d="
M 215.00 146.00 
C 213.20 150.18 212.25 154.37 212.00 159.00
C 211.82 162.27 211.82 165.73 212.00 169.00
C 212.45 177.25 216.13 184.45 221.00 191.00
C 222.61 192.85 225.24 195.37 227.00 197.00
C 256.64 220.40 300.30 239.57 302.00 284.00
C 303.17 314.71 280.04 348.93 248.00 348.00
C 271.75 341.48 292.89 319.03 295.00 294.00
C 295.23 289.75 295.23 285.25 295.00 281.00
C 291.93 224.36 213.68 222.42 202.00 176.00
C 198.79 174.91 196.40 173.79 196.00 170.00
C 193.95 172.57 188.96 173.03 186.00 172.00
C 185.33 179.10 188.64 185.19 189.00 192.00
C 187.97 186.31 179.81 192.67 179.00 186.00
C 178.83 186.67 176.08 188.47 176.00 189.00
C 190.84 238.76 250.40 245.15 280.00 281.00
C 287.42 264.59 259.88 228.66 248.00 246.00
C 235.67 246.28 243.27 229.55 253.00 234.00
C 238.96 220.71 219.16 216.60 204.00 206.00
C 243.89 209.46 299.96 250.56 291.00 297.00
C 289.92 302.59 288.06 307.71 286.00 313.00
C 282.70 307.64 281.16 302.39 286.00 297.00
C 290.03 287.88 289.38 278.17 286.00 269.00
C 285.87 268.78 285.00 269.00 285.00 269.00
C 285.26 275.98 285.27 282.96 282.00 289.00
C 278.46 285.57 274.33 282.80 269.00 284.00
C 278.03 308.67 254.21 336.56 229.00 336.00
C 246.54 327.91 253.22 304.36 243.00 288.00
C 240.65 289.26 242.88 292.18 243.00 294.00
C 244.54 316.66 228.87 338.34 205.00 331.00
C 201.18 329.83 197.06 329.20 195.00 325.00
C 193.31 324.82 190.66 322.96 191.00 321.00
C 192.28 322.16 194.14 322.61 195.00 324.00
C 206.17 323.41 220.85 329.17 229.08 317.08 C 237.32 305.00 239.99 295.54 233.00 283.00
C 233.02 283.01 228.39 283.79 229.00 281.00
C 225.04 281.05 221.77 284.06 224.00 288.00
C 214.37 273.19 189.51 275.18 183.00 292.00
C 180.36 289.46 177.20 292.62 176.00 295.00
C 174.02 294.53 176.11 291.40 174.00 291.00
C 168.98 310.67 181.14 328.43 195.92 338.08 C 210.71 347.72 240.24 344.14 249.92 332.92 C 259.59 321.69 290.49 301.41 278.00 322.00
C 267.37 339.53 246.81 347.31 228.00 350.00
C 223.46 350.65 218.43 350.47 214.00 350.00
C 212.40 350.00 210.58 350.23 209.00 350.00
C 208.32 349.42 209.30 351.66 210.00 352.00
C 213.27 352.80 216.76 353.29 220.00 354.00
C 228.12 355.77 236.42 357.00 245.00 357.00
C 251.67 357.00 258.33 357.00 265.00 357.00
C 300.44 357.00 349.56 336.65 356.00 297.00
C 353.81 271.01 349.63 244.93 325.70 229.30 C 301.76 213.67 287.75 204.52 264.00 191.00
C 256.32 186.63 249.11 182.60 245.00 174.00
C 243.53 174.27 244.11 176.00 244.00 177.00
C 240.73 174.33 237.14 181.57 233.00 177.00
C 250.96 220.62 322.59 234.88 327.00 285.00
C 329.94 318.37 300.54 351.57 267.00 347.00
C 274.91 344.28 282.53 340.52 290.00 337.00
C 329.90 310.72 315.71 263.27 286.08 238.92 C 256.46 214.57 215.62 190.37 227.00 149.00
C 224.31 149.97 226.02 147.88 225.00 145.00
C 222.85 145.43 217.56 143.56 215.00 146.00
M 230.00 224.00 
C 232.63 225.78 231.88 226.47 233.00 229.00
C 233.49 229.06 234.52 228.91 235.00 229.00
C 236.19 229.22 237.79 229.40 238.00 231.00
C 236.67 231.00 235.33 231.00 234.00 231.00
C 226.14 232.86 215.07 231.97 214.00 222.00
C 219.48 222.13 225.23 221.19 230.00 224.00
M 217.00 300.00 
C 216.02 310.64 199.68 314.12 195.00 304.00
C 186.14 284.83 218.77 280.77 217.00 300.00
M 281.00 293.00 
C 282.37 299.32 277.23 304.62 272.00 307.00
C 272.82 301.37 275.92 296.11 281.00 293.00 Z"/>
</g>
<g fill="None" fill-opacity="0.0" stroke="#B9CCD4" stroke-opacity="1.00" stroke-width="0.3"><path d="
M 303.00 153.00 
C 302.82 153.42 303.17 154.57 303.00 155.00
C 303.15 156.51 314.58 145.29 318.00 144.00
C 312.43 143.98 305.31 147.54 303.00 153.00 Z"/>
</g>
<g fill="None" fill-opacity="0.0" stroke="#92A6AF" stroke-opacity="1.00" stroke-width="0.3"><path d="
M 303.00 155.00 
C 302.24 156.90 301.95 158.48 302.00 161.00
C 305.57 152.56 316.41 150.23 321.00 144.00
C 320.17 143.77 318.87 144.00 318.00 144.00
C 314.58 145.29 303.15 156.51 303.00 155.00 Z"/>
</g>
<g fill="None" fill-opacity="0.0" stroke="#5E7485" stroke-opacity="1.00" stroke-width="0.3"><path d="
M 302.00 161.00 
C 302.02 161.98 301.90 163.02 302.00 164.00
C 303.04 167.52 307.76 162.94 308.00 161.00
C 309.25 161.30 309.71 162.83 311.00 163.00
C 309.71 154.92 315.79 148.19 324.00 149.00
C 322.66 147.76 323.64 144.72 321.00 144.00
C 316.41 150.23 305.57 152.56 302.00 161.00 Z"/>
</g>
<g fill="None" fill-opacity="0.0" stroke="#213440" stroke-opacity="1.00" stroke-width="0.3"><path d="
M 358.00 145.00 
C 357.98 147.68 359.71 150.37 360.00 153.00
C 362.30 173.58 349.81 197.56 327.00 198.00
C 324.17 198.46 321.75 198.39 319.00 198.00
C 314.70 198.50 310.93 196.83 307.00 196.00
C 311.02 200.21 317.11 202.60 323.00 203.00
C 326.23 203.22 329.77 203.22 333.00 203.00
C 360.81 201.11 372.91 165.34 359.00 144.00
C 359.02 144.12 358.00 144.66 358.00 145.00 Z"/>
</g>
<g fill="None" fill-opacity="0.0" stroke="#92A6AF" stroke-opacity="1.00" stroke-width="0.3"><path d="
M 342.00 150.00 
C 341.35 147.82 341.04 146.83 340.00 145.00
C 340.19 145.09 338.89 145.58 338.00 145.00
C 338.93 146.16 342.30 150.52 342.00 150.00 Z"/>
</g>
<g fill="None" fill-opacity="0.0" stroke="#E5EFF5" stroke-opacity="1.00" stroke-width="0.3"><path d="
M 311.00 163.00 
C 311.63 166.93 313.88 168.37 317.00 170.00
C 313.60 164.47 332.89 164.72 334.00 163.00
C 334.43 160.43 333.84 158.25 333.00 156.00
C 331.61 152.29 327.96 149.39 324.00 149.00
C 315.79 148.19 309.71 154.92 311.00 163.00 Z"/>
</g>
<g fill="None" fill-opacity="0.0" stroke="#17374F" stroke-opacity="1.00" stroke-width="0.3"><path d="
M 333.00 156.00 
C 333.84 158.25 334.43 160.43 334.00 163.00
C 332.59 171.45 322.90 173.08 317.00 170.00
C 313.88 168.37 311.63 166.93 311.00 163.00
C 309.71 162.83 309.25 161.30 308.00 161.00
C 307.76 162.94 303.04 167.52 302.00 164.00
C 304.94 192.16 345.79 179.34 343.00 154.00
C 342.11 153.24 339.48 150.23 336.00 151.00
C 335.98 152.81 333.21 154.64 333.00 156.00 Z"/>
</g>
<g fill="None" fill-opacity="0.0" stroke="#B9CCD4" stroke-opacity="1.00" stroke-width="0.3"><path d="
M 323.00 198.00 
C 324.33 198.00 325.67 198.03 327.00 198.00
C 349.81 197.56 362.30 173.58 360.00 153.00
C 355.09 172.12 343.30 192.38 321.00 196.00
C 321.17 196.57 322.61 197.90 323.00 198.00 Z"/>
</g>
<g fill="None" fill-opacity="0.0" stroke="#5E7485" stroke-opacity="1.00" stroke-width="0.3"><path d="
M 212.00 169.00 
C 211.82 165.73 211.82 162.27 212.00 159.00
C 211.45 162.38 211.44 165.56 212.00 169.00 Z"/>
</g>
<g fill="None" fill-opacity="0.0" stroke="#92A6AF" stroke-opacity="1.00" stroke-width="0.3"><path d="
M 293.00 167.00 
C 292.74 164.45 292.86 161.56 293.00 159.00
C 292.54 161.86 292.34 164.03 293.00 167.00 Z"/>
</g>
<g fill="None" fill-opacity="0.0" stroke="#92A6AF" stroke-opacity="1.00" stroke-width="0.3"><path d="
M 317.00 170.00 
C 322.90 173.08 332.59 171.45 334.00 163.00
C 332.89 164.72 313.60 164.47 317.00 170.00 Z"/>
</g>
<g fill="None" fill-opacity="0.0" stroke="#92A6AF" stroke-opacity="1.00" stroke-width="0.3"><path d="
M 174.00 177.00 
C 173.82 173.72 173.87 170.29 174.00 167.00
C 173.52 170.34 173.44 173.58 174.00 177.00 Z"/>
</g>
<g fill="None" fill-opacity="0.0" stroke="#92A6AF" stroke-opacity="1.00" stroke-width="0.3"><path d="
M 265.00 188.00 
C 264.67 186.89 263.82 185.64 263.00 185.00
C 262.50 184.61 261.48 184.52 261.00 184.00
C 261.55 184.95 265.44 189.14 265.00 188.00 Z"/>
</g>
<g fill="None" fill-opacity="0.0" stroke="#213440" stroke-opacity="1.00" stroke-width="0.3"><path d="
M 289.00 185.00 
C 279.04 183.38 284.28 197.68 291.00 190.00
C 294.86 194.78 288.74 197.55 287.00 200.00
C 303.34 208.19 301.92 183.30 289.00 185.00 Z"/>
</g>
<g fill="None" fill-opacity="0.0" stroke="#5E7485" stroke-opacity="1.00" stroke-width="0.3"><path d="
M 227.00 197.00 
C 225.24 195.37 222.61 192.85 221.00 191.00
C 222.71 193.30 224.71 195.19 227.00 197.00 Z"/>
</g>
<g fill="None" fill-opacity="0.0" stroke="#5E7485" stroke-opacity="1.00" stroke-width="0.3"><path d="
M 327.00 198.00 
C 325.67 198.03 324.33 198.00 323.00 198.00
C 321.67 198.00 320.33 198.00 319.00 198.00
C 321.75 198.39 324.17 198.46 327.00 198.00 Z"/>
</g>
<g fill="None" fill-opacity="0.0" stroke="#5E7485" stroke-opacity="1.00" stroke-width="0.3"><path d="
M 333.00 203.00 
C 329.77 203.22 326.23 203.22 323.00 203.00
C 326.43 203.61 329.51 203.62 333.00 203.00 Z"/>
</g>
<g fill="None" fill-opacity="0.0" stroke="#CDE3EA" stroke-opacity="1.00" stroke-width="0.3"><path d="
M 234.00 231.00 
C 234.12 230.94 235.19 229.13 235.00 229.00
C 234.52 228.91 233.49 229.06 233.00 229.00
C 230.58 228.71 228.56 227.82 226.00 228.00
C 227.38 226.26 232.89 227.83 230.00 224.00
C 225.23 221.19 219.48 222.13 214.00 222.00
C 215.07 231.97 226.14 232.86 234.00 231.00 Z"/>
</g>
<g fill="None" fill-opacity="0.0" stroke="#92A6AF" stroke-opacity="1.00" stroke-width="0.3"><path d="
M 233.00 229.00 
C 231.88 226.47 232.63 225.78 230.00 224.00
C 232.89 227.83 227.38 226.26 226.00 228.00
C 228.56 227.82 230.58 228.71 233.00 229.00 Z"/>
</g>
<g fill="None" fill-opacity="0.0" stroke="#92A6AF" stroke-opacity="1.00" stroke-width="0.3"><path d="
M 234.00 231.00 
C 235.33 231.00 236.67 231.00 238.00 231.00
C 237.79 229.40 236.19 229.22 235.00 229.00
C 235.19 229.13 234.12 230.94 234.00 231.00 Z"/>
</g>
<g fill="None" fill-opacity="0.0" stroke="#213440" stroke-opacity="1.00" stroke-width="0.3"><path d="
M 241.00 258.00 
C 235.96 241.64 216.93 267.02 234.00 264.00
C 230.39 258.50 236.15 253.33 241.00 258.00 Z"/>
</g>
<g fill="None" fill-opacity="0.0" stroke="#213440" stroke-opacity="1.00" stroke-width="0.3"><path d="
M 236.00 261.00 
C 238.11 277.91 254.47 260.19 236.00 261.00 Z"/>
</g>
<g fill="None" fill-opacity="0.0" stroke="#405560" stroke-opacity="1.00" stroke-width="0.3"><path d="
M 285.00 269.00 
C 285.00 269.00 285.87 268.78 286.00 269.00
C 284.95 266.29 284.58 262.63 282.00 261.00
C 282.98 263.43 283.05 267.28 285.00 269.00 Z"/>
</g>
<g fill="None" fill-opacity="0.0" stroke="#17374F" stroke-opacity="1.00" stroke-width="0.3"><path d="
M 174.00 291.00 
C 176.11 291.40 174.02 294.53 176.00 295.00
C 177.20 292.62 180.36 289.46 183.00 292.00
C 189.51 275.18 214.37 273.19 224.00 288.00
C 221.77 284.06 225.04 281.05 229.00 281.00
C 228.39 283.79 233.02 283.01 233.00 283.00
C 218.87 257.65 181.19 262.83 174.00 291.00 Z"/>
</g>
<g fill="None" fill-opacity="0.0" stroke="#B9CCD4" stroke-opacity="1.00" stroke-width="0.3"><path d="
M 290.00 337.00 
C 282.53 340.52 274.91 344.28 267.00 347.00
C 300.54 351.57 329.94 318.37 327.00 285.00
C 324.54 285.96 327.37 289.97 325.00 291.00
C 325.47 286.16 324.37 279.21 319.00 278.00
C 321.83 300.14 311.31 329.20 290.00 337.00 Z"/>
</g>
<g fill="None" fill-opacity="0.0" stroke="#5E7485" stroke-opacity="1.00" stroke-width="0.3"><path d="
M 295.00 294.00 
C 295.24 292.93 295.91 291.62 296.00 290.00
C 296.19 286.76 295.42 283.58 295.00 281.00
C 295.23 285.25 295.23 289.75 295.00 294.00 Z"/>
</g>
<g fill="None" fill-opacity="0.0" stroke="#B9CCD4" stroke-opacity="1.00" stroke-width="0.3"><path d="
M 296.00 290.00 
C 295.91 291.62 295.24 292.93 295.00 294.00
C 292.89 319.03 271.75 341.48 248.00 348.00
C 280.04 348.93 303.17 314.71 302.00 284.00
C 299.86 285.38 301.53 288.81 301.00 291.00
C 298.21 291.71 297.59 286.00 296.00 290.00 Z"/>
</g>
<g fill="None" fill-opacity="0.0" stroke="#E5EFF5" stroke-opacity="1.00" stroke-width="0.3"><path d="
M 195.00 304.00 
C 196.12 305.25 204.68 303.62 204.00 300.00
C 206.72 303.60 212.50 298.29 217.00 300.00
C 218.77 280.77 186.14 284.83 195.00 304.00 Z"/>
</g>
<g fill="None" fill-opacity="0.0" stroke="#E5EFF5" stroke-opacity="1.00" stroke-width="0.3"><path d="
M 281.00 293.00 
C 275.92 296.11 272.82 301.37 272.00 307.00
C 277.23 304.62 282.37 299.32 281.00 293.00 Z"/>
</g>
<g fill="None" fill-opacity="0.0" stroke="#B9CCD4" stroke-opacity="1.00" stroke-width="0.3"><path d="
M 205.00 331.00 
C 228.87 338.34 244.54 316.66 243.00 294.00
C 240.35 309.82 223.87 332.97 205.00 331.00 Z"/>
</g>
<g fill="None" fill-opacity="0.0" stroke="#B9CCD4" stroke-opacity="1.00" stroke-width="0.3"><path d="
M 291.00 297.00 
C 289.65 298.25 287.41 297.09 286.00 297.00
C 281.16 302.39 282.70 307.64 286.00 313.00
C 288.06 307.71 289.92 302.59 291.00 297.00 Z"/>
</g>
<g fill="None" fill-opacity="0.0" stroke="#B9CCD4" stroke-opacity="1.00" stroke-width="0.3"><path d="
M 265.00 357.00 
C 258.71 357.61 251.23 357.60 245.00 357.00
C 236.42 357.00 228.12 355.77 220.00 354.00
C 256.46 369.19 361.35 360.55 356.00 297.00
C 349.56 336.65 300.44 357.00 265.00 357.00 Z"/>
</g>
<g fill="None" fill-opacity="0.0" stroke="#B9CCD4" stroke-opacity="1.00" stroke-width="0.3"><path d="
M 195.00 304.00 
C 199.68 314.12 216.02 310.64 217.00 300.00
C 212.50 298.29 206.72 303.60 204.00 300.00
C 204.68 303.62 196.12 305.25 195.00 304.00 Z"/>
</g>
<g fill="None" fill-opacity="0.0" stroke="#B9CCD4" stroke-opacity="1.00" stroke-width="0.3"><path d="
M 228.00 350.00 
C 246.81 347.31 267.37 339.53 278.00 322.00
C 276.17 321.34 279.02 319.48 278.00 318.00
C 273.00 321.14 271.52 322.61 267.00 323.00
C 272.05 326.12 259.36 327.26 262.00 331.00
C 249.74 330.98 240.61 347.21 228.00 350.00 Z"/>
</g>
<g fill="None" fill-opacity="0.0" stroke="#5E7485" stroke-opacity="1.00" stroke-width="0.3"><path d="
M 195.00 325.00 
C 195.00 325.00 195.24 324.31 195.00 324.00
C 194.14 322.61 192.28 322.16 191.00 321.00
C 190.66 322.96 193.31 324.82 195.00 325.00 Z"/>
</g>
<g fill="None" fill-opacity="0.0" stroke="#92A6AF" stroke-opacity="1.00" stroke-width="0.3"><path d="
M 210.00 352.00 
C 209.30 351.66 208.32 349.42 209.00 350.00
C 207.49 348.93 203.50 347.24 202.00 349.00
C 204.71 349.98 207.24 351.33 210.00 352.00 Z"/>
</g>
<g fill="None" fill-opacity="0.0" stroke="#5E7485" stroke-opacity="1.00" stroke-width="0.3"><path d="
M 228.00 350.00 
C 223.80 350.93 218.31 350.00 214.00 350.00
C 218.43 350.47 223.46 350.65 228.00 350.00 Z"/>
</g>
<g fill="None" fill-opacity="0.0" stroke="#5E7485" stroke-opacity="1.00" stroke-width="0.3"><path d="
M 265.00 357.00 
C 258.33 357.00 251.67 357.00 245.00 357.00
C 251.23 357.60 258.71 357.61 265.00 357.00 Z"/>
</g>
<g fill="None" fill-opacity="0.0" stroke="#132737" stroke-opacity="1.00" stroke-width="0.3"><path d="
M 156.00 392.00 
C 179.44 382.41 129.96 393.79 161.00 401.00
C 160.81 405.89 154.45 403.86 152.00 402.00
C 152.87 421.00 177.79 396.77 156.00 392.00 Z"/>
</g>
<g fill="None" fill-opacity="0.0" stroke="#92A6AF" stroke-opacity="1.00" stroke-width="0.3"><path d="
M 179.00 393.00 
C 177.81 391.16 174.91 392.37 173.00 392.00
C 173.00 390.67 173.00 389.33 173.00 388.00
C 173.10 387.52 173.00 387.00 173.00 387.00
C 169.14 390.74 175.00 394.78 179.00 393.00 Z"/>
</g>
<g fill="None" fill-opacity="0.0" stroke="#5E7485" stroke-opacity="1.00" stroke-width="0.3"><path d="
M 173.00 388.00 
C 178.62 388.51 184.37 387.62 190.00 388.00
C 190.00 389.33 190.00 390.67 190.00 392.00
C 191.94 391.22 190.61 388.57 191.00 387.00
C 185.04 387.40 178.95 386.46 173.00 387.00
C 173.00 387.00 173.10 387.52 173.00 388.00 Z"/>
</g>
<g fill="None" fill-opacity="0.0" stroke="#213440" stroke-opacity="1.00" stroke-width="0.3"><path d="
M 205.00 395.00 
C 202.92 391.17 200.61 385.46 195.00 387.00
C 201.34 393.25 200.58 407.59 208.00 409.00
C 205.51 399.85 212.98 394.23 216.00 387.00
C 209.37 384.81 208.32 391.59 205.00 395.00 Z"/>
</g>
<g fill="None" fill-opacity="0.0" stroke="#0B1F2C" stroke-opacity="1.00" stroke-width="0.3"><path d="
M 228.00 387.00 
C 218.04 386.69 225.13 402.26 223.00 409.00
C 228.00 407.70 239.76 412.66 238.00 404.00
C 234.67 404.00 231.33 404.00 228.00 404.00
C 228.00 398.33 228.00 392.67 228.00 387.00 Z"/>
</g>
<g fill="None" fill-opacity="0.0" stroke="#5E7485" stroke-opacity="1.00" stroke-width="0.3"><path d="
M 245.00 388.00 
C 250.00 388.00 255.00 388.00 260.00 388.00
C 258.87 386.04 246.29 386.16 245.00 388.00 Z"/>
</g>
<g fill="None" fill-opacity="0.0" stroke="#132737" stroke-opacity="1.00" stroke-width="0.3"><path d="
M 284.00 395.00 
C 285.62 392.36 288.49 390.64 290.00 388.00
C 288.33 388.00 286.67 388.00 285.00 388.00
C 281.92 389.67 280.11 393.27 277.00 395.00
C 277.40 391.33 277.46 385.44 272.00 387.00
C 272.00 394.33 272.00 401.67 272.00 409.00
C 277.98 410.80 277.24 405.04 277.00 401.00
C 281.78 404.27 284.98 411.22 292.00 409.00
C 289.24 403.54 280.15 401.26 284.00 395.00 Z"/>
</g>
<g fill="None" fill-opacity="0.0" stroke="#5E7485" stroke-opacity="1.00" stroke-width="0.3"><path d="
M 285.00 388.00 
C 286.67 388.00 288.33 388.00 290.00 388.00
C 288.49 390.64 285.62 392.36 284.00 395.00
C 286.56 392.90 290.32 390.40 291.00 387.00
C 288.73 386.52 286.65 387.26 285.00 388.00 Z"/>
</g>
<g fill="None" fill-opacity="0.0" stroke="#132737" stroke-opacity="1.00" stroke-width="0.3"><path d="
M 305.00 387.00 
C 293.71 386.45 297.82 409.48 308.98 409.98 C 320.13 410.47 324.07 387.88 314.00 387.00
C 319.44 407.14 299.37 407.22 305.00 387.00 Z"/>
</g>
<g fill="None" fill-opacity="0.0" stroke="#5E7485" stroke-opacity="1.00" stroke-width="0.3"><path d="
M 330.00 409.00 
C 330.00 401.67 330.00 394.33 330.00 387.00
C 330.08 390.39 326.00 406.47 330.00 409.00 Z"/>
</g>
<g fill="None" fill-opacity="0.0" stroke="#0B1F2C" stroke-opacity="1.00" stroke-width="0.3"><path d="
M 330.00 409.00 
C 331.67 409.00 333.33 409.00 335.00 409.00
C 335.00 405.33 335.00 401.67 335.00 398.00
C 339.79 401.38 343.39 407.23 349.00 409.00
C 346.90 402.29 353.90 386.64 344.00 387.00
C 344.00 390.67 344.00 394.33 344.00 398.00
C 339.18 394.57 335.09 390.08 330.00 387.00
C 330.00 394.33 330.00 401.67 330.00 409.00 Z"/>
</g>
<g fill="None" fill-opacity="0.0" stroke="#213440" stroke-opacity="1.00" stroke-width="0.3"><path d="
M 371.00 402.00 
C 371.31 399.48 372.33 390.03 371.00 388.00
C 367.26 384.26 366.01 403.54 360.08 403.08 C 354.16 402.62 367.35 416.73 371.00 402.00 Z"/>
</g>
<g fill="None" fill-opacity="0.0" stroke="#132737" stroke-opacity="1.00" stroke-width="0.3"><path d="
M 179.00 393.00 
C 180.44 398.22 175.10 410.61 184.00 409.00
C 184.00 403.33 184.00 397.67 184.00 392.00
C 185.35 391.25 188.86 392.99 190.00 392.00
C 190.00 390.67 190.00 389.33 190.00 388.00
C 184.37 387.62 178.62 388.51 173.00 388.00
C 173.00 389.33 173.00 390.67 173.00 392.00
C 174.91 392.37 177.81 391.16 179.00 393.00 Z"/>
</g>
<g fill="None" fill-opacity="0.0" stroke="#132737" stroke-opacity="1.00" stroke-width="0.3"><path d="
M 260.00 388.00 
C 255.00 388.00 250.00 388.00 245.00 388.00
C 245.00 395.00 245.00 402.00 245.00 409.00
C 250.22 407.56 262.61 412.90 261.00 404.00
C 257.33 404.00 253.67 404.00 250.00 404.00
C 248.38 396.78 260.39 403.28 258.00 396.00
C 254.75 395.78 248.37 397.50 250.00 392.00
C 253.33 392.00 256.67 392.00 260.00 392.00
C 259.56 390.92 260.58 389.00 260.00 388.00 Z"/>
</g>
<g fill="None" fill-opacity="0.0" stroke="#5E7485" stroke-opacity="1.00" stroke-width="0.3"><path d="
M 371.00 402.00 
C 371.72 399.09 373.73 390.73 371.00 388.00
C 372.33 390.03 371.31 399.48 371.00 402.00 Z"/>
</g>
<g fill="None" fill-opacity="0.0" stroke="#92A6AF" stroke-opacity="1.00" stroke-width="0.3"><path d="
M 188.00 417.00 
C 190.27 422.09 188.38 429.16 189.00 435.00
C 192.86 432.03 188.18 416.62 188.00 417.00 Z"/>
</g>
<g fill="None" fill-opacity="0.0" stroke="#5E7485" stroke-opacity="1.00" stroke-width="0.3"><path d="
M 189.00 435.00 
C 188.38 429.16 190.27 422.09 188.00 417.00
C 185.85 421.53 188.79 430.89 189.00 435.00 Z"/>
</g>
<g fill="None" fill-opacity="0.0" stroke="#5E7485" stroke-opacity="1.00" stroke-width="0.3"><path d="
M 252.00 417.00 
C 250.31 421.85 250.38 430.08 252.00 435.00
C 251.39 430.98 252.54 424.61 258.00 426.00
C 258.51 428.85 256.92 432.90 259.00 435.00
C 262.10 431.50 259.20 420.52 253.00 425.00
C 250.81 423.30 252.56 419.52 252.00 417.00 Z"/>
</g>
<g fill="None" fill-opacity="0.0" stroke="#5E7485" stroke-opacity="1.00" stroke-width="0.3"><path d="
M 389.00 428.00 
C 388.45 424.49 390.16 419.76 388.00 417.00
C 385.68 422.01 387.66 429.17 387.00 435.00
C 389.96 430.47 390.20 432.56 395.00 435.00
C 390.93 431.49 390.44 427.35 395.00 424.00
C 391.58 423.05 391.78 427.19 389.00 428.00 Z"/>
</g>
<g fill="None" fill-opacity="0.0" stroke="#5E7485" stroke-opacity="1.00" stroke-width="0.3"><path d="
M 113.00 435.00 
C 122.86 437.04 120.45 423.10 119.00 418.00
C 116.65 423.89 120.35 433.59 113.00 435.00 Z"/>
</g>
<g fill="None" fill-opacity="0.0" stroke="#5E7485" stroke-opacity="1.00" stroke-width="0.3"><path d="
M 322.00 422.00 
C 298.51 408.54 332.82 442.74 311.00 431.00
C 335.97 445.31 303.12 412.83 322.00 422.00 Z"/>
</g>
<g fill="None" fill-opacity="0.0" stroke="#5E7485" stroke-opacity="1.00" stroke-width="0.3"><path d="
M 241.00 420.00 
C 237.47 419.50 240.31 425.68 236.00 424.00
C 239.72 426.23 238.30 431.18 240.00 435.00
C 241.42 429.21 242.87 425.05 241.00 420.00 Z"/>
</g>
<g fill="None" fill-opacity="0.0" stroke="#5E7485" stroke-opacity="1.00" stroke-width="0.3"><path d="
M 293.00 424.00 
C 288.69 425.58 291.34 419.51 288.00 420.00
C 286.09 425.28 287.65 429.07 289.00 435.00
C 290.78 431.39 289.26 425.99 293.00 424.00 Z"/>
</g>
<g fill="None" fill-opacity="0.0" stroke="#5E7485" stroke-opacity="1.00" stroke-width="0.3"><path d="
M 139.00 430.00 
C 132.78 411.48 120.50 442.38 138.00 433.00
C 136.32 431.20 129.81 435.38 130.00 430.00
C 133.00 430.00 136.00 430.00 139.00 430.00
M 137.00 429.00 
C 125.62 431.85 133.78 421.06 137.00 429.00 Z"/>
</g>
<g fill="None" fill-opacity="0.0" stroke="#5E7485" stroke-opacity="1.00" stroke-width="0.3"><path d="
M 150.00 432.00 
C 148.38 429.45 148.47 424.48 145.00 424.00
C 147.24 427.86 147.26 433.25 151.00 436.00
C 150.39 432.93 153.60 431.04 153.00 428.00
C 155.85 429.75 154.91 434.51 158.00 436.00
C 158.06 431.60 161.70 428.33 162.00 424.00
C 158.08 424.28 159.43 430.11 157.00 432.00
C 155.66 429.35 155.28 425.98 153.00 424.00
C 152.27 426.71 151.62 429.90 150.00 432.00 Z"/>
</g>
<g fill="None" fill-opacity="0.0" stroke="#5E7485" stroke-opacity="1.00" stroke-width="0.3"><path d="
M 180.00 430.00 
C 173.78 411.48 161.50 442.38 179.00 433.00
C 177.32 431.20 170.80 435.38 171.00 430.00
C 174.00 430.00 177.00 430.00 180.00 430.00
M 178.00 429.00 
C 166.62 431.85 174.78 421.06 178.00 429.00 Z"/>
</g>
<g fill="None" fill-opacity="0.0" stroke="#5E7485" stroke-opacity="1.00" stroke-width="0.3"><path d="
M 204.00 424.00 
C 201.61 424.01 200.15 425.01 198.00 424.00
C 198.55 427.51 196.84 432.24 199.00 435.00
C 200.17 430.98 200.16 426.00 204.00 424.00 Z"/>
</g>
<g fill="None" fill-opacity="0.0" stroke="#5E7485" stroke-opacity="1.00" stroke-width="0.3"><path d="
M 214.00 431.00 
C 213.22 428.43 212.33 424.11 209.00 424.00
C 212.65 429.26 214.30 435.52 210.00 441.00
C 215.44 438.12 216.58 429.56 219.00 424.00
C 215.66 424.24 216.79 429.54 214.00 431.00 Z"/>
</g>
<g fill="None" fill-opacity="0.0" stroke="#5E7485" stroke-opacity="1.00" stroke-width="0.3"><path d="
M 278.00 424.00 
C 264.84 420.00 264.87 439.00 278.00 435.00
C 278.00 431.33 278.00 427.67 278.00 424.00
M 275.00 426.00 
C 279.47 427.83 275.20 435.29 271.00 433.00 C 266.79 430.70 270.56 424.18 275.00 426.00 Z"/>
</g>
<g fill="None" fill-opacity="0.0" stroke="#5E7485" stroke-opacity="1.00" stroke-width="0.3"><path d="
M 334.00 434.00 
C 346.27 438.11 341.57 418.83 331.00 424.00
C 331.62 429.51 329.74 436.25 332.00 441.00
C 334.57 439.74 331.50 435.33 334.00 434.00
M 339.00 426.00 
C 342.71 428.42 338.42 435.60 334.33 432.67 C 330.24 429.74 335.06 423.43 339.00 426.00 Z"/>
</g>
<g fill="None" fill-opacity="0.0" stroke="#5E7485" stroke-opacity="1.00" stroke-width="0.3"><path d="
M 360.00 430.00 
C 354.01 411.66 341.69 442.14 359.00 433.00
C 357.32 431.20 350.81 435.38 351.00 430.00
C 354.00 430.00 357.00 430.00 360.00 430.00
M 358.00 429.00 
C 346.62 431.85 354.77 421.06 358.00 429.00 Z"/>
</g>
<g fill="None" fill-opacity="0.0" stroke="#5E7485" stroke-opacity="1.00" stroke-width="0.3"><path d="
M 378.00 424.00 
C 364.84 420.00 364.87 439.00 378.00 435.00
C 378.00 431.33 378.00 427.67 378.00 424.00
M 375.00 426.00 
C 379.47 427.83 375.20 435.29 371.00 433.00 C 366.79 430.70 370.56 424.18 375.00 426.00 Z"/>
</g>
<g fill="None" fill-opacity="0.0" stroke="#5E7485" stroke-opacity="1.00" stroke-width="0.3"><path d="
M 409.00 427.00 
C 405.10 417.71 397.21 432.06 408.00 431.00
C 407.89 435.95 403.31 432.86 401.00 432.00
C 408.42 440.11 412.48 428.55 403.00 426.00
C 405.60 424.49 406.56 426.70 409.00 427.00 Z"/>
</g>
<g fill="None" fill-opacity="0.0" stroke="#CDE3EA" stroke-opacity="1.00" stroke-width="0.3"><path d="
M 137.00 429.00 
C 133.78 421.06 125.62 431.85 137.00 429.00 Z"/>
</g>
<g fill="None" fill-opacity="0.0" stroke="#CDE3EA" stroke-opacity="1.00" stroke-width="0.3"><path d="
M 178.00 429.00 
C 174.78 421.06 166.62 431.85 178.00 429.00 Z"/>
</g>
<g fill="None" fill-opacity="0.0" stroke="#E5EFF5" stroke-opacity="1.00" stroke-width="0.3"><path d="
M 275.00 426.00 
C 270.56 424.18 266.79 430.70 271.00 433.00 C 275.20 435.29 279.47 427.83 275.00 426.00 Z"/>
</g>
<g fill="None" fill-opacity="0.0" stroke="#E5EFF5" stroke-opacity="1.00" stroke-width="0.3"><path d="
M 339.00 426.00 
C 335.06 423.43 330.24 429.74 334.33 432.67 C 338.42 435.60 342.71 428.42 339.00 426.00 Z"/>
</g>
<g fill="None" fill-opacity="0.0" stroke="#CDE3EA" stroke-opacity="1.00" stroke-width="0.3"><path d="
M 358.00 429.00 
C 354.77 421.06 346.62 431.85 358.00 429.00 Z"/>
</g>
<g fill="None" fill-opacity="0.0" stroke="#E5EFF5" stroke-opacity="1.00" stroke-width="0.3"><path d="
M 375.00 426.00 
C 370.56 424.18 366.79 430.70 371.00 433.00 C 375.20 435.29 379.47 427.83 375.00 426.00 Z"/>
</g>
<g fill="#E5EFF5" fill-opacity="1.00" stroke="None">
<path d="
M 0.00 500.00 
L 500.00 500.00
L 500.00 0.00
L 0.00 0.00
L 0.00 500.00
M 246.00 143.00 
C 247.25 144.69 249.70 143.12 251.00 144.00
C 253.77 136.10 258.54 134.70 266.00 131.00
C 285.09 109.10 319.29 105.29 340.00 126.00
C 385.39 171.39 304.56 219.16 293.00 167.00
C 292.34 164.03 292.54 161.86 293.00 159.00
C 293.23 154.72 294.07 152.39 296.00 149.00
C 304.66 133.79 326.65 130.76 338.00 145.00
C 338.89 145.58 340.19 145.09 340.00 145.00
C 332.23 131.30 316.54 129.71 302.00 130.00
C 296.27 130.11 291.62 131.58 286.00 132.00
C 266.15 143.65 246.86 157.63 263.00 185.00
C 263.82 185.64 264.67 186.89 265.00 188.00
C 265.28 188.93 266.03 190.43 264.00 191.00
C 287.75 204.52 301.76 213.67 325.70 229.30 C 349.63 244.93 353.81 271.01 356.00 297.00
C 361.35 360.55 256.46 369.19 220.00 354.00
C 216.76 353.29 213.27 352.80 210.00 352.00
C 207.24 351.33 204.71 349.98 202.00 349.00
C 203.50 347.24 207.49 348.93 209.00 350.00
C 210.58 350.23 212.40 350.00 214.00 350.00
C 218.31 350.00 223.80 350.93 228.00 350.00
C 240.61 347.21 249.74 330.98 262.00 331.00
C 259.36 327.26 272.05 326.12 267.00 323.00
C 271.52 322.61 273.00 321.14 278.00 318.00
C 279.02 319.48 276.17 321.34 278.00 322.00
C 290.49 301.41 259.59 321.69 249.92 332.92 C 240.24 344.14 210.71 347.72 195.92 338.08 C 181.14 328.43 168.98 310.67 174.00 291.00
C 181.19 262.83 218.87 257.65 233.00 283.00
C 239.99 295.54 237.32 305.00 229.08 317.08 C 220.85 329.17 206.17 323.41 195.00 324.00
C 195.24 324.31 195.00 325.00 195.00 325.00
C 197.06 329.20 201.18 329.83 205.00 331.00
C 223.87 332.97 240.35 309.82 243.00 294.00
C 242.88 292.18 240.65 289.26 243.00 288.00
C 253.22 304.36 246.54 327.91 229.00 336.00
C 254.21 336.56 278.03 308.67 269.00 284.00
C 274.33 282.80 278.46 285.57 282.00 289.00
C 285.27 282.96 285.26 275.98 285.00 269.00
C 283.05 267.28 282.98 263.43 282.00 261.00
C 284.58 262.63 284.95 266.29 286.00 269.00
C 289.38 278.17 290.03 287.88 286.00 297.00
C 287.41 297.09 289.65 298.25 291.00 297.00
C 299.96 250.56 243.89 209.46 204.00 206.00
C 219.16 216.60 238.96 220.71 253.00 234.00
C 243.27 229.55 235.67 246.28 248.00 246.00
C 259.88 228.66 287.42 264.59 280.00 281.00
C 250.40 245.15 190.84 238.76 176.00 189.00
C 174.91 185.08 174.23 181.19 174.00 177.00
C 173.44 173.58 173.52 170.34 174.00 167.00
C 174.40 156.54 178.11 146.58 184.00 138.00
C 208.21 102.71 257.24 97.67 296.00 105.00
C 276.00 107.97 249.63 120.29 246.00 143.00
M 359.00 144.00 
C 372.91 165.34 360.81 201.11 333.00 203.00
C 329.51 203.62 326.43 203.61 323.00 203.00
C 317.11 202.60 311.02 200.21 307.00 196.00
C 310.93 196.83 314.70 198.50 319.00 198.00
C 320.33 198.00 321.67 198.00 323.00 198.00
C 322.61 197.90 321.17 196.57 321.00 196.00
C 343.30 192.38 355.09 172.12 360.00 153.00
C 359.71 150.37 357.98 147.68 358.00 145.00
C 356.68 144.61 355.14 141.30 355.00 140.00
C 356.57 140.96 358.25 142.32 359.00 144.00
M 289.00 185.00 
C 301.92 183.30 303.34 208.19 287.00 200.00
C 288.74 197.55 294.86 194.78 291.00 190.00
C 284.28 197.68 279.04 183.38 289.00 185.00
M 241.00 258.00 
C 236.15 253.33 230.39 258.50 234.00 264.00
C 216.93 267.02 235.96 241.64 241.00 258.00
M 236.00 261.00 
C 254.47 260.19 238.11 277.91 236.00 261.00
M 156.00 392.00 
C 177.79 396.77 152.87 421.00 152.00 402.00
C 154.45 403.86 160.81 405.89 161.00 401.00
C 129.96 393.79 179.44 382.41 156.00 392.00
M 190.00 392.00 
C 188.86 392.99 185.35 391.25 184.00 392.00
C 184.00 397.67 184.00 403.33 184.00 409.00
C 175.10 410.61 180.44 398.22 179.00 393.00
C 175.00 394.78 169.14 390.74 173.00 387.00
C 178.95 386.46 185.04 387.40 191.00 387.00
C 190.61 388.57 191.94 391.22 190.00 392.00
M 205.00 395.00 
C 208.32 391.59 209.37 384.81 216.00 387.00
C 212.98 394.23 205.51 399.85 208.00 409.00
C 200.58 407.59 201.34 393.25 195.00 387.00
C 200.61 385.46 202.92 391.17 205.00 395.00
M 228.00 387.00 
C 228.00 392.67 228.00 398.33 228.00 404.00
C 231.33 404.00 234.67 404.00 238.00 404.00
C 239.76 412.66 228.00 407.70 223.00 409.00
C 225.13 402.26 218.04 386.69 228.00 387.00
M 260.00 388.00 
C 260.58 389.00 259.56 390.92 260.00 392.00
C 256.67 392.00 253.33 392.00 250.00 392.00
C 248.37 397.50 254.75 395.78 258.00 396.00
C 260.39 403.28 248.38 396.78 250.00 404.00
C 253.67 404.00 257.33 404.00 261.00 404.00
C 262.61 412.90 250.22 407.56 245.00 409.00
C 245.00 402.00 245.00 395.00 245.00 388.00
C 246.29 386.16 258.87 386.04 260.00 388.00
M 285.00 388.00 
C 286.65 387.26 288.73 386.52 291.00 387.00
C 290.32 390.40 286.56 392.90 284.00 395.00
C 280.15 401.26 289.24 403.54 292.00 409.00
C 284.98 411.22 281.78 404.27 277.00 401.00
C 277.24 405.04 277.98 410.80 272.00 409.00
C 272.00 401.67 272.00 394.33 272.00 387.00
C 277.46 385.44 277.40 391.33 277.00 395.00
C 280.11 393.27 281.92 389.67 285.00 388.00
M 305.00 387.00 
C 299.37 407.22 319.44 407.14 314.00 387.00
C 324.07 387.88 320.13 410.47 308.98 409.98 C 297.82 409.48 293.71 386.45 305.00 387.00
M 330.00 409.00 
C 326.00 406.47 330.08 390.39 330.00 387.00
C 335.09 390.08 339.18 394.57 344.00 398.00
C 344.00 394.33 344.00 390.67 344.00 387.00
C 353.90 386.64 346.90 402.29 349.00 409.00
C 343.39 407.23 339.79 401.38 335.00 398.00
C 335.00 401.67 335.00 405.33 335.00 409.00
C 333.33 409.00 331.67 409.00 330.00 409.00
M 371.00 388.00 
C 373.73 390.73 371.72 399.09 371.00 402.00
C 367.35 416.73 354.16 402.62 360.08 403.08 C 366.01 403.54 367.26 384.26 371.00 388.00
M 189.00 435.00 
C 188.79 430.89 185.85 421.53 188.00 417.00
C 188.18 416.62 192.86 432.03 189.00 435.00
M 252.00 417.00 
C 252.56 419.52 250.81 423.30 253.00 425.00
C 259.20 420.52 262.10 431.50 259.00 435.00
C 256.92 432.90 258.51 428.85 258.00 426.00
C 252.54 424.61 251.39 430.98 252.00 435.00
C 250.38 430.08 250.31 421.85 252.00 417.00
M 389.00 428.00 
C 391.78 427.19 391.58 423.05 395.00 424.00
C 390.44 427.35 390.93 431.49 395.00 435.00
C 390.20 432.56 389.96 430.47 387.00 435.00
C 387.66 429.17 385.68 422.01 388.00 417.00
C 390.16 419.76 388.45 424.49 389.00 428.00
M 113.00 435.00 
C 120.35 433.59 116.65 423.89 119.00 418.00
C 120.45 423.10 122.86 437.04 113.00 435.00
M 322.00 422.00 
C 303.12 412.83 335.97 445.31 311.00 431.00
C 332.82 442.74 298.51 408.54 322.00 422.00
M 241.00 420.00 
C 242.87 425.05 241.42 429.21 240.00 435.00
C 238.30 431.18 239.72 426.23 236.00 424.00
C 240.31 425.68 237.47 419.50 241.00 420.00
M 293.00 424.00 
C 289.26 425.99 290.78 431.39 289.00 435.00
C 287.65 429.07 286.09 425.28 288.00 420.00
C 291.34 419.51 288.69 425.58 293.00 424.00
M 139.00 430.00 
C 136.00 430.00 133.00 430.00 130.00 430.00
C 129.81 435.38 136.32 431.20 138.00 433.00
C 120.50 442.38 132.78 411.48 139.00 430.00
M 150.00 432.00 
C 151.62 429.90 152.27 426.71 153.00 424.00
C 155.28 425.98 155.66 429.35 157.00 432.00
C 159.43 430.11 158.08 424.28 162.00 424.00
C 161.70 428.33 158.06 431.60 158.00 436.00
C 154.91 434.51 155.85 429.75 153.00 428.00
C 153.60 431.04 150.39 432.93 151.00 436.00
C 147.26 433.25 147.24 427.86 145.00 424.00
C 148.47 424.48 148.38 429.45 150.00 432.00
M 180.00 430.00 
C 177.00 430.00 174.00 430.00 171.00 430.00
C 170.80 435.38 177.32 431.20 179.00 433.00
C 161.50 442.38 173.78 411.48 180.00 430.00
M 204.00 424.00 
C 200.16 426.00 200.17 430.98 199.00 435.00
C 196.84 432.24 198.55 427.51 198.00 424.00
C 200.15 425.01 201.61 424.01 204.00 424.00
M 214.00 431.00 
C 216.79 429.54 215.66 424.24 219.00 424.00
C 216.58 429.56 215.44 438.12 210.00 441.00
C 214.30 435.52 212.65 429.26 209.00 424.00
C 212.33 424.11 213.22 428.43 214.00 431.00
M 278.00 424.00 
C 278.00 427.67 278.00 431.33 278.00 435.00
C 264.87 439.00 264.84 420.00 278.00 424.00
M 334.00 434.00 
C 331.50 435.33 334.57 439.74 332.00 441.00
C 329.74 436.25 331.62 429.51 331.00 424.00
C 341.57 418.83 346.27 438.11 334.00 434.00
M 360.00 430.00 
C 357.00 430.00 354.00 430.00 351.00 430.00
C 350.81 435.38 357.32 431.20 359.00 433.00
C 341.69 442.14 354.01 411.66 360.00 430.00
M 378.00 424.00 
C 378.00 427.67 378.00 431.33 378.00 435.00
C 364.87 439.00 364.84 420.00 378.00 424.00
M 409.00 427.00 
C 406.56 426.70 405.60 424.49 403.00 426.00
C 412.48 428.55 408.42 440.11 401.00 432.00
C 403.31 432.86 407.89 435.95 408.00 431.00
C 397.21 432.06 405.10 417.71 409.00 427.00 Z"/>
</g>
<g fill="#305270" fill-opacity="1.00" stroke="None">
<path d="
M 184.00 138.00 
C 184.01 137.95 184.74 140.29 184.00 141.00
C 190.90 141.06 200.12 128.49 208.00 134.00
C 207.80 130.47 212.26 131.18 214.00 129.00
C 228.24 113.60 251.15 107.05 271.00 110.00
C 245.06 119.58 222.23 148.90 233.00 177.00
C 237.14 181.57 240.73 174.33 244.00 177.00
C 244.11 176.00 243.53 174.27 245.00 174.00
C 241.31 166.29 241.80 157.71 242.00 149.00
C 244.27 149.59 245.90 148.15 248.00 148.00
C 248.79 147.41 249.46 145.78 250.00 145.00
C 248.43 145.30 246.40 144.75 246.00 143.00
C 249.63 120.29 276.00 107.97 296.00 105.00
C 257.24 97.67 208.21 102.71 184.00 138.00 Z"/>
</g>
<g fill="#CDE3EA" fill-opacity="1.00" stroke="None">
<path d="
M 214.00 129.00 
C 203.04 140.86 198.01 160.12 202.00 176.00
C 213.68 222.42 291.93 224.36 295.00 281.00
C 295.42 283.58 296.19 286.76 296.00 290.00
C 297.59 286.00 298.21 291.71 301.00 291.00
C 301.53 288.81 299.86 285.38 302.00 284.00
C 300.30 239.57 256.64 220.40 227.00 197.00
C 224.71 195.19 222.71 193.30 221.00 191.00
C 216.13 184.45 212.45 177.25 212.00 169.00
C 211.44 165.56 211.45 162.38 212.00 159.00
C 212.25 154.37 213.20 150.18 215.00 146.00
C 222.40 128.86 240.20 116.02 258.00 113.00
C 254.77 115.16 251.40 117.81 248.00 120.00
C 244.49 123.06 240.01 127.55 237.00 131.00
C 233.12 136.22 228.63 143.07 227.00 149.00
C 215.62 190.37 256.46 214.57 286.08 238.92 C 315.71 263.27 329.90 310.72 290.00 337.00
C 311.31 329.20 321.83 300.14 319.00 278.00
C 324.37 279.21 325.47 286.16 325.00 291.00
C 327.37 289.97 324.54 285.96 327.00 285.00
C 322.59 234.88 250.96 220.62 233.00 177.00
C 222.23 148.90 245.06 119.58 271.00 110.00
C 251.15 107.05 228.24 113.60 214.00 129.00 Z"/>
</g>
<g fill="#17374F" fill-opacity="1.00" stroke="None">
<path d="
M 266.00 131.00 
C 253.32 145.55 251.44 167.39 261.00 184.00
C 261.48 184.52 262.50 184.61 263.00 185.00
C 246.86 157.63 266.15 143.65 286.00 132.00
C 291.62 131.58 296.27 130.11 302.00 130.00
C 303.59 129.63 306.15 126.20 309.00 128.00
C 307.04 125.34 301.89 128.72 300.00 126.00
C 298.75 125.65 296.49 126.81 296.00 125.00
C 306.75 119.68 320.39 121.21 330.00 128.00
C 331.12 128.81 333.69 130.14 333.00 132.00
C 337.54 130.46 338.31 131.66 343.00 131.00
C 342.78 129.07 338.10 127.45 340.00 126.00
C 319.29 105.29 285.09 109.10 266.00 131.00
M 299.00 118.00 
C 293.53 123.16 285.98 126.70 278.00 126.00
C 283.58 120.68 291.16 118.02 299.00 118.00
M 280.00 134.00 
C 275.52 138.24 269.16 137.35 264.00 140.00
C 265.63 133.83 275.06 129.04 280.00 134.00 Z"/>
</g>
<g fill="#305270" fill-opacity="1.00" stroke="None">
<path d="
M 215.00 146.00 
C 217.56 143.56 222.85 145.43 225.00 145.00
C 226.02 147.88 224.31 149.97 227.00 149.00
C 228.63 143.07 233.12 136.22 237.00 131.00
C 239.97 127.00 244.06 122.93 248.00 120.00
C 251.40 117.81 254.77 115.16 258.00 113.00
C 240.20 116.02 222.40 128.86 215.00 146.00 Z"/>
</g>
<g fill="#B9CCD4" fill-opacity="1.00" stroke="None">
<path d="
M 299.00 118.00 
C 291.16 118.02 283.58 120.68 278.00 126.00
C 285.98 126.70 293.53 123.16 299.00 118.00 Z"/>
</g>
<g fill="#92A6AF" fill-opacity="1.00" stroke="None">
<path d="
M 237.00 131.00 
C 240.01 127.55 244.49 123.06 248.00 120.00
C 244.06 122.93 239.97 127.00 237.00 131.00 Z"/>
</g>
<g fill="#B9CCD4" fill-opacity="1.00" stroke="None">
<path d="
M 300.00 126.00 
C 311.54 127.02 321.47 124.06 332.00 131.00
C 331.45 130.17 330.68 128.61 330.00 128.00
C 320.39 121.21 306.75 119.68 296.00 125.00
C 296.49 126.81 298.75 125.65 300.00 126.00 Z"/>
</g>
<g fill="#132737" fill-opacity="1.00" stroke="None">
<path d="
M 300.00 126.00 
C 301.89 128.72 307.04 125.34 309.00 128.00
C 306.15 126.20 303.59 129.63 302.00 130.00
C 316.54 129.71 332.23 131.30 340.00 145.00
C 341.04 146.83 341.35 147.82 342.00 150.00
C 342.35 151.18 342.82 152.34 343.00 154.00
C 345.79 179.34 304.94 192.16 302.00 164.00
C 301.90 163.02 302.02 161.98 302.00 161.00
C 301.95 158.48 302.24 156.90 303.00 155.00
C 303.17 154.57 302.82 153.42 303.00 153.00
C 302.98 152.97 294.29 149.70 296.00 149.00
C 294.07 152.39 293.23 154.72 293.00 159.00
C 292.86 161.56 292.74 164.45 293.00 167.00
C 304.56 219.16 385.39 171.39 340.00 126.00
C 338.10 127.45 342.78 129.07 343.00 131.00
C 338.31 131.66 337.54 130.46 333.00 132.00
C 332.75 132.08 332.21 131.31 332.00 131.00
C 321.47 124.06 311.54 127.02 300.00 126.00 Z"/>
</g>
<g fill="#5E7485" fill-opacity="1.00" stroke="None">
<path d="
M 332.00 131.00 
C 332.21 131.31 332.75 132.08 333.00 132.00
C 333.69 130.14 331.12 128.81 330.00 128.00
C 330.68 128.61 331.45 130.17 332.00 131.00 Z"/>
</g>
<g fill="#17374F" fill-opacity="1.00" stroke="None">
<path d="
M 184.00 138.00 
C 178.11 146.58 174.40 156.54 174.00 167.00
C 173.87 170.29 173.82 173.72 174.00 177.00
C 174.23 181.19 174.91 185.08 176.00 189.00
C 176.08 188.47 178.83 186.67 179.00 186.00
C 179.81 192.67 187.97 186.31 189.00 192.00
C 188.64 185.19 185.33 179.10 186.00 172.00
C 188.96 173.03 193.95 172.57 196.00 170.00
C 196.40 173.79 198.79 174.91 202.00 176.00
C 198.01 160.12 203.04 140.86 214.00 129.00
C 212.26 131.18 207.80 130.47 208.00 134.00
C 200.12 128.49 190.90 141.06 184.00 141.00
C 184.74 140.29 184.01 137.95 184.00 138.00 Z"/>
</g>
<g fill="#B9CCD4" fill-opacity="1.00" stroke="None">
<path d="
M 251.00 144.00 
C 250.63 145.06 250.35 146.84 248.00 148.00
C 245.90 148.15 244.27 149.59 242.00 149.00
C 241.80 157.71 241.31 166.29 245.00 174.00
C 249.11 182.60 256.32 186.63 264.00 191.00
C 266.03 190.43 265.28 188.93 265.00 188.00
C 265.44 189.14 261.55 184.95 261.00 184.00
C 251.44 167.39 253.32 145.55 266.00 131.00
C 258.54 134.70 253.77 136.10 251.00 144.00 Z"/>
</g>
<g fill="#CDE3EA" fill-opacity="1.00" stroke="None">
<path d="
M 280.00 134.00 
C 275.06 129.04 265.63 133.83 264.00 140.00
C 269.16 137.35 275.52 138.24 280.00 134.00 Z"/>
</g>
<g fill="#305270" fill-opacity="1.00" stroke="None">
<path d="
M 296.00 149.00 
C 294.29 149.70 302.98 152.97 303.00 153.00
C 305.31 147.54 312.43 143.98 318.00 144.00
C 318.87 144.00 320.17 143.77 321.00 144.00
C 323.64 144.72 322.66 147.76 324.00 149.00
C 327.96 149.39 331.61 152.29 333.00 156.00
C 333.21 154.64 335.98 152.81 336.00 151.00
C 339.48 150.23 342.11 153.24 343.00 154.00
C 342.82 152.34 342.35 151.18 342.00 150.00
C 342.30 150.52 338.93 146.16 338.00 145.00
C 326.65 130.76 304.66 133.79 296.00 149.00 Z"/>
</g>
<g fill="#92A6AF" fill-opacity="1.00" stroke="None">
<path d="
M 358.00 145.00 
C 358.00 144.66 359.02 144.12 359.00 144.00
C 358.25 142.32 356.57 140.96 355.00 140.00
C 355.14 141.30 356.68 144.61 358.00 145.00 Z"/>
</g>
<g fill="#92A6AF" fill-opacity="1.00" stroke="None">
<path d="
M 248.00 148.00 
C 250.35 146.84 250.63 145.06 251.00 144.00
C 249.70 143.12 247.25 144.69 246.00 143.00
C 246.40 144.75 248.43 145.30 250.00 145.00
C 249.46 145.78 248.79 147.41 248.00 148.00 Z"/>
</g>
<g fill="#132737" fill-opacity="1.00" stroke="None">
<path d="
M 215.00 146.00 
C 213.20 150.18 212.25 154.37 212.00 159.00
C 211.82 162.27 211.82 165.73 212.00 169.00
C 212.45 177.25 216.13 184.45 221.00 191.00
C 222.61 192.85 225.24 195.37 227.00 197.00
C 256.64 220.40 300.30 239.57 302.00 284.00
C 303.17 314.71 280.04 348.93 248.00 348.00
C 271.75 341.48 292.89 319.03 295.00 294.00
C 295.23 289.75 295.23 285.25 295.00 281.00
C 291.93 224.36 213.68 222.42 202.00 176.00
C 198.79 174.91 196.40 173.79 196.00 170.00
C 193.95 172.57 188.96 173.03 186.00 172.00
C 185.33 179.10 188.64 185.19 189.00 192.00
C 187.97 186.31 179.81 192.67 179.00 186.00
C 178.83 186.67 176.08 188.47 176.00 189.00
C 190.84 238.76 250.40 245.15 280.00 281.00
C 287.42 264.59 259.88 228.66 248.00 246.00
C 235.67 246.28 243.27 229.55 253.00 234.00
C 238.96 220.71 219.16 216.60 204.00 206.00
C 243.89 209.46 299.96 250.56 291.00 297.00
C 289.92 302.59 288.06 307.71 286.00 313.00
C 282.70 307.64 281.16 302.39 286.00 297.00
C 290.03 287.88 289.38 278.17 286.00 269.00
C 285.87 268.78 285.00 269.00 285.00 269.00
C 285.26 275.98 285.27 282.96 282.00 289.00
C 278.46 285.57 274.33 282.80 269.00 284.00
C 278.03 308.67 254.21 336.56 229.00 336.00
C 246.54 327.91 253.22 304.36 243.00 288.00
C 240.65 289.26 242.88 292.18 243.00 294.00
C 244.54 316.66 228.87 338.34 205.00 331.00
C 201.18 329.83 197.06 329.20 195.00 325.00
C 193.31 324.82 190.66 322.96 191.00 321.00
C 192.28 322.16 194.14 322.61 195.00 324.00
C 206.17 323.41 220.85 329.17 229.08 317.08 C 237.32 305.00 239.99 295.54 233.00 283.00
C 233.02 283.01 228.39 283.79 229.00 281.00
C 225.04 281.05 221.77 284.06 224.00 288.00
C 214.37 273.19 189.51 275.18 183.00 292.00
C 180.36 289.46 177.20 292.62 176.00 295.00
C 174.02 294.53 176.11 291.40 174.00 291.00
C 168.98 310.67 181.14 328.43 195.92 338.08 C 210.71 347.72 240.24 344.14 249.92 332.92 C 259.59 321.69 290.49 301.41 278.00 322.00
C 267.37 339.53 246.81 347.31 228.00 350.00
C 223.46 350.65 218.43 350.47 214.00 350.00
C 212.40 350.00 210.58 350.23 209.00 350.00
C 208.32 349.42 209.30 351.66 210.00 352.00
C 213.27 352.80 216.76 353.29 220.00 354.00
C 228.12 355.77 236.42 357.00 245.00 357.00
C 251.67 357.00 258.33 357.00 265.00 357.00
C 300.44 357.00 349.56 336.65 356.00 297.00
C 353.81 271.01 349.63 244.93 325.70 229.30 C 301.76 213.67 287.75 204.52 264.00 191.00
C 256.32 186.63 249.11 182.60 245.00 174.00
C 243.53 174.27 244.11 176.00 244.00 177.00
C 240.73 174.33 237.14 181.57 233.00 177.00
C 250.96 220.62 322.59 234.88 327.00 285.00
C 329.94 318.37 300.54 351.57 267.00 347.00
C 274.91 344.28 282.53 340.52 290.00 337.00
C 329.90 310.72 315.71 263.27 286.08 238.92 C 256.46 214.57 215.62 190.37 227.00 149.00
C 224.31 149.97 226.02 147.88 225.00 145.00
C 222.85 145.43 217.56 143.56 215.00 146.00
M 230.00 224.00 
C 232.63 225.78 231.88 226.47 233.00 229.00
C 233.49 229.06 234.52 228.91 235.00 229.00
C 236.19 229.22 237.79 229.40 238.00 231.00
C 236.67 231.00 235.33 231.00 234.00 231.00
C 226.14 232.86 215.07 231.97 214.00 222.00
C 219.48 222.13 225.23 221.19 230.00 224.00
M 217.00 300.00 
C 216.02 310.64 199.68 314.12 195.00 304.00
C 186.14 284.83 218.77 280.77 217.00 300.00
M 281.00 293.00 
C 282.37 299.32 277.23 304.62 272.00 307.00
C 272.82 301.37 275.92 296.11 281.00 293.00 Z"/>
</g>
<g fill="#B9CCD4" fill-opacity="1.00" stroke="None">
<path d="
M 303.00 153.00 
C 302.82 153.42 303.17 154.57 303.00 155.00
C 303.15 156.51 314.58 145.29 318.00 144.00
C 312.43 143.98 305.31 147.54 303.00 153.00 Z"/>
</g>
<g fill="#92A6AF" fill-opacity="1.00" stroke="None">
<path d="
M 303.00 155.00 
C 302.24 156.90 301.95 158.48 302.00 161.00
C 305.57 152.56 316.41 150.23 321.00 144.00
C 320.17 143.77 318.87 144.00 318.00 144.00
C 314.58 145.29 303.15 156.51 303.00 155.00 Z"/>
</g>
<g fill="#5E7485" fill-opacity="1.00" stroke="None">
<path d="
M 302.00 161.00 
C 302.02 161.98 301.90 163.02 302.00 164.00
C 303.04 167.52 307.76 162.94 308.00 161.00
C 309.25 161.30 309.71 162.83 311.00 163.00
C 309.71 154.92 315.79 148.19 324.00 149.00
C 322.66 147.76 323.64 144.72 321.00 144.00
C 316.41 150.23 305.57 152.56 302.00 161.00 Z"/>
</g>
<g fill="#213440" fill-opacity="1.00" stroke="None">
<path d="
M 358.00 145.00 
C 357.98 147.68 359.71 150.37 360.00 153.00
C 362.30 173.58 349.81 197.56 327.00 198.00
C 324.17 198.46 321.75 198.39 319.00 198.00
C 314.70 198.50 310.93 196.83 307.00 196.00
C 311.02 200.21 317.11 202.60 323.00 203.00
C 326.23 203.22 329.77 203.22 333.00 203.00
C 360.81 201.11 372.91 165.34 359.00 144.00
C 359.02 144.12 358.00 144.66 358.00 145.00 Z"/>
</g>
<g fill="#92A6AF" fill-opacity="1.00" stroke="None">
<path d="
M 342.00 150.00 
C 341.35 147.82 341.04 146.83 340.00 145.00
C 340.19 145.09 338.89 145.58 338.00 145.00
C 338.93 146.16 342.30 150.52 342.00 150.00 Z"/>
</g>
<g fill="#E5EFF5" fill-opacity="1.00" stroke="None">
<path d="
M 311.00 163.00 
C 311.63 166.93 313.88 168.37 317.00 170.00
C 313.60 164.47 332.89 164.72 334.00 163.00
C 334.43 160.43 333.84 158.25 333.00 156.00
C 331.61 152.29 327.96 149.39 324.00 149.00
C 315.79 148.19 309.71 154.92 311.00 163.00 Z"/>
</g>
<g fill="#17374F" fill-opacity="1.00" stroke="None">
<path d="
M 333.00 156.00 
C 333.84 158.25 334.43 160.43 334.00 163.00
C 332.59 171.45 322.90 173.08 317.00 170.00
C 313.88 168.37 311.63 166.93 311.00 163.00
C 309.71 162.83 309.25 161.30 308.00 161.00
C 307.76 162.94 303.04 167.52 302.00 164.00
C 304.94 192.16 345.79 179.34 343.00 154.00
C 342.11 153.24 339.48 150.23 336.00 151.00
C 335.98 152.81 333.21 154.64 333.00 156.00 Z"/>
</g>
<g fill="#B9CCD4" fill-opacity="1.00" stroke="None">
<path d="
M 323.00 198.00 
C 324.33 198.00 325.67 198.03 327.00 198.00
C 349.81 197.56 362.30 173.58 360.00 153.00
C 355.09 172.12 343.30 192.38 321.00 196.00
C 321.17 196.57 322.61 197.90 323.00 198.00 Z"/>
</g>
<g fill="#5E7485" fill-opacity="1.00" stroke="None">
<path d="
M 212.00 169.00 
C 211.82 165.73 211.82 162.27 212.00 159.00
C 211.45 162.38 211.44 165.56 212.00 169.00 Z"/>
</g>
<g fill="#92A6AF" fill-opacity="1.00" stroke="None">
<path d="
M 293.00 167.00 
C 292.74 164.45 292.86 161.56 293.00 159.00
C 292.54 161.86 292.34 164.03 293.00 167.00 Z"/>
</g>
<g fill="#92A6AF" fill-opacity="1.00" stroke="None">
<path d="
M 317.00 170.00 
C 322.90 173.08 332.59 171.45 334.00 163.00
C 332.89 164.72 313.60 164.47 317.00 170.00 Z"/>
</g>
<g fill="#92A6AF" fill-opacity="1.00" stroke="None">
<path d="
M 174.00 177.00 
C 173.82 173.72 173.87 170.29 174.00 167.00
C 173.52 170.34 173.44 173.58 174.00 177.00 Z"/>
</g>
<g fill="#92A6AF" fill-opacity="1.00" stroke="None">
<path d="
M 265.00 188.00 
C 264.67 186.89 263.82 185.64 263.00 185.00
C 262.50 184.61 261.48 184.52 261.00 184.00
C 261.55 184.95 265.44 189.14 265.00 188.00 Z"/>
</g>
<g fill="#213440" fill-opacity="1.00" stroke="None">
<path d="
M 289.00 185.00 
C 279.04 183.38 284.28 197.68 291.00 190.00
C 294.86 194.78 288.74 197.55 287.00 200.00
C 303.34 208.19 301.92 183.30 289.00 185.00 Z"/>
</g>
<g fill="#5E7485" fill-opacity="1.00" stroke="None">
<path d="
M 227.00 197.00 
C 225.24 195.37 222.61 192.85 221.00 191.00
C 222.71 193.30 224.71 195.19 227.00 197.00 Z"/>
</g>
<g fill="#5E7485" fill-opacity="1.00" stroke="None">
<path d="
M 327.00 198.00 
C 325.67 198.03 324.33 198.00 323.00 198.00
C 321.67 198.00 320.33 198.00 319.00 198.00
C 321.75 198.39 324.17 198.46 327.00 198.00 Z"/>
</g>
<g fill="#5E7485" fill-opacity="1.00" stroke="None">
<path d="
M 333.00 203.00 
C 329.77 203.22 326.23 203.22 323.00 203.00
C 326.43 203.61 329.51 203.62 333.00 203.00 Z"/>
</g>
<g fill="#CDE3EA" fill-opacity="1.00" stroke="None">
<path d="
M 234.00 231.00 
C 234.12 230.94 235.19 229.13 235.00 229.00
C 234.52 228.91 233.49 229.06 233.00 229.00
C 230.58 228.71 228.56 227.82 226.00 228.00
C 227.38 226.26 232.89 227.83 230.00 224.00
C 225.23 221.19 219.48 222.13 214.00 222.00
C 215.07 231.97 226.14 232.86 234.00 231.00 Z"/>
</g>
<g fill="#92A6AF" fill-opacity="1.00" stroke="None">
<path d="
M 233.00 229.00 
C 231.88 226.47 232.63 225.78 230.00 224.00
C 232.89 227.83 227.38 226.26 226.00 228.00
C 228.56 227.82 230.58 228.71 233.00 229.00 Z"/>
</g>
<g fill="#92A6AF" fill-opacity="1.00" stroke="None">
<path d="
M 234.00 231.00 
C 235.33 231.00 236.67 231.00 238.00 231.00
C 237.79 229.40 236.19 229.22 235.00 229.00
C 235.19 229.13 234.12 230.94 234.00 231.00 Z"/>
</g>
<g fill="#213440" fill-opacity="1.00" stroke="None">
<path d="
M 241.00 258.00 
C 235.96 241.64 216.93 267.02 234.00 264.00
C 230.39 258.50 236.15 253.33 241.00 258.00 Z"/>
</g>
<g fill="#213440" fill-opacity="1.00" stroke="None">
<path d="
M 236.00 261.00 
C 238.11 277.91 254.47 260.19 236.00 261.00 Z"/>
</g>
<g fill="#405560" fill-opacity="1.00" stroke="None">
<path d="
M 285.00 269.00 
C 285.00 269.00 285.87 268.78 286.00 269.00
C 284.95 266.29 284.58 262.63 282.00 261.00
C 282.98 263.43 283.05 267.28 285.00 269.00 Z"/>
</g>
<g fill="#17374F" fill-opacity="1.00" stroke="None">
<path d="
M 174.00 291.00 
C 176.11 291.40 174.02 294.53 176.00 295.00
C 177.20 292.62 180.36 289.46 183.00 292.00
C 189.51 275.18 214.37 273.19 224.00 288.00
C 221.77 284.06 225.04 281.05 229.00 281.00
C 228.39 283.79 233.02 283.01 233.00 283.00
C 218.87 257.65 181.19 262.83 174.00 291.00 Z"/>
</g>
<g fill="#B9CCD4" fill-opacity="1.00" stroke="None">
<path d="
M 290.00 337.00 
C 282.53 340.52 274.91 344.28 267.00 347.00
C 300.54 351.57 329.94 318.37 327.00 285.00
C 324.54 285.96 327.37 289.97 325.00 291.00
C 325.47 286.16 324.37 279.21 319.00 278.00
C 321.83 300.14 311.31 329.20 290.00 337.00 Z"/>
</g>
<g fill="#5E7485" fill-opacity="1.00" stroke="None">
<path d="
M 295.00 294.00 
C 295.24 292.93 295.91 291.62 296.00 290.00
C 296.19 286.76 295.42 283.58 295.00 281.00
C 295.23 285.25 295.23 289.75 295.00 294.00 Z"/>
</g>
<g fill="#B9CCD4" fill-opacity="1.00" stroke="None">
<path d="
M 296.00 290.00 
C 295.91 291.62 295.24 292.93 295.00 294.00
C 292.89 319.03 271.75 341.48 248.00 348.00
C 280.04 348.93 303.17 314.71 302.00 284.00
C 299.86 285.38 301.53 288.81 301.00 291.00
C 298.21 291.71 297.59 286.00 296.00 290.00 Z"/>
</g>
<g fill="#E5EFF5" fill-opacity="1.00" stroke="None">
<path d="
M 195.00 304.00 
C 196.12 305.25 204.68 303.62 204.00 300.00
C 206.72 303.60 212.50 298.29 217.00 300.00
C 218.77 280.77 186.14 284.83 195.00 304.00 Z"/>
</g>
<g fill="#E5EFF5" fill-opacity="1.00" stroke="None">
<path d="
M 281.00 293.00 
C 275.92 296.11 272.82 301.37 272.00 307.00
C 277.23 304.62 282.37 299.32 281.00 293.00 Z"/>
</g>
<g fill="#B9CCD4" fill-opacity="1.00" stroke="None">
<path d="
M 205.00 331.00 
C 228.87 338.34 244.54 316.66 243.00 294.00
C 240.35 309.82 223.87 332.97 205.00 331.00 Z"/>
</g>
<g fill="#B9CCD4" fill-opacity="1.00" stroke="None">
<path d="
M 291.00 297.00 
C 289.65 298.25 287.41 297.09 286.00 297.00
C 281.16 302.39 282.70 307.64 286.00 313.00
C 288.06 307.71 289.92 302.59 291.00 297.00 Z"/>
</g>
<g fill="#B9CCD4" fill-opacity="1.00" stroke="None">
<path d="
M 265.00 357.00 
C 258.71 357.61 251.23 357.60 245.00 357.00
C 236.42 357.00 228.12 355.77 220.00 354.00
C 256.46 369.19 361.35 360.55 356.00 297.00
C 349.56 336.65 300.44 357.00 265.00 357.00 Z"/>
</g>
<g fill="#B9CCD4" fill-opacity="1.00" stroke="None">
<path d="
M 195.00 304.00 
C 199.68 314.12 216.02 310.64 217.00 300.00
C 212.50 298.29 206.72 303.60 204.00 300.00
C 204.68 303.62 196.12 305.25 195.00 304.00 Z"/>
</g>
<g fill="#B9CCD4" fill-opacity="1.00" stroke="None">
<path d="
M 228.00 350.00 
C 246.81 347.31 267.37 339.53 278.00 322.00
C 276.17 321.34 279.02 319.48 278.00 318.00
C 273.00 321.14 271.52 322.61 267.00 323.00
C 272.05 326.12 259.36 327.26 262.00 331.00
C 249.74 330.98 240.61 347.21 228.00 350.00 Z"/>
</g>
<g fill="#5E7485" fill-opacity="1.00" stroke="None">
<path d="
M 195.00 325.00 
C 195.00 325.00 195.24 324.31 195.00 324.00
C 194.14 322.61 192.28 322.16 191.00 321.00
C 190.66 322.96 193.31 324.82 195.00 325.00 Z"/>
</g>
<g fill="#92A6AF" fill-opacity="1.00" stroke="None">
<path d="
M 210.00 352.00 
C 209.30 351.66 208.32 349.42 209.00 350.00
C 207.49 348.93 203.50 347.24 202.00 349.00
C 204.71 349.98 207.24 351.33 210.00 352.00 Z"/>
</g>
<g fill="#5E7485" fill-opacity="1.00" stroke="None">
<path d="
M 228.00 350.00 
C 223.80 350.93 218.31 350.00 214.00 350.00
C 218.43 350.47 223.46 350.65 228.00 350.00 Z"/>
</g>
<g fill="#5E7485" fill-opacity="1.00" stroke="None">
<path d="
M 265.00 357.00 
C 258.33 357.00 251.67 357.00 245.00 357.00
C 251.23 357.60 258.71 357.61 265.00 357.00 Z"/>
</g>
<g fill="#132737" fill-opacity="1.00" stroke="None">
<path d="
M 156.00 392.00 
C 179.44 382.41 129.96 393.79 161.00 401.00
C 160.81 405.89 154.45 403.86 152.00 402.00
C 152.87 421.00 177.79 396.77 156.00 392.00 Z"/>
</g>
<g fill="#92A6AF" fill-opacity="1.00" stroke="None">
<path d="
M 179.00 393.00 
C 177.81 391.16 174.91 392.37 173.00 392.00
C 173.00 390.67 173.00 389.33 173.00 388.00
C 173.10 387.52 173.00 387.00 173.00 387.00
C 169.14 390.74 175.00 394.78 179.00 393.00 Z"/>
</g>
<g fill="#5E7485" fill-opacity="1.00" stroke="None">
<path d="
M 173.00 388.00 
C 178.62 388.51 184.37 387.62 190.00 388.00
C 190.00 389.33 190.00 390.67 190.00 392.00
C 191.94 391.22 190.61 388.57 191.00 387.00
C 185.04 387.40 178.95 386.46 173.00 387.00
C 173.00 387.00 173.10 387.52 173.00 388.00 Z"/>
</g>
<g fill="#213440" fill-opacity="1.00" stroke="None">
<path d="
M 205.00 395.00 
C 202.92 391.17 200.61 385.46 195.00 387.00
C 201.34 393.25 200.58 407.59 208.00 409.00
C 205.51 399.85 212.98 394.23 216.00 387.00
C 209.37 384.81 208.32 391.59 205.00 395.00 Z"/>
</g>
<g fill="#0B1F2C" fill-opacity="1.00" stroke="None">
<path d="
M 228.00 387.00 
C 218.04 386.69 225.13 402.26 223.00 409.00
C 228.00 407.70 239.76 412.66 238.00 404.00
C 234.67 404.00 231.33 404.00 228.00 404.00
C 228.00 398.33 228.00 392.67 228.00 387.00 Z"/>
</g>
<g fill="#5E7485" fill-opacity="1.00" stroke="None">
<path d="
M 245.00 388.00 
C 250.00 388.00 255.00 388.00 260.00 388.00
C 258.87 386.04 246.29 386.16 245.00 388.00 Z"/>
</g>
<g fill="#132737" fill-opacity="1.00" stroke="None">
<path d="
M 284.00 395.00 
C 285.62 392.36 288.49 390.64 290.00 388.00
C 288.33 388.00 286.67 388.00 285.00 388.00
C 281.92 389.67 280.11 393.27 277.00 395.00
C 277.40 391.33 277.46 385.44 272.00 387.00
C 272.00 394.33 272.00 401.67 272.00 409.00
C 277.98 410.80 277.24 405.04 277.00 401.00
C 281.78 404.27 284.98 411.22 292.00 409.00
C 289.24 403.54 280.15 401.26 284.00 395.00 Z"/>
</g>
<g fill="#5E7485" fill-opacity="1.00" stroke="None">
<path d="
M 285.00 388.00 
C 286.67 388.00 288.33 388.00 290.00 388.00
C 288.49 390.64 285.62 392.36 284.00 395.00
C 286.56 392.90 290.32 390.40 291.00 387.00
C 288.73 386.52 286.65 387.26 285.00 388.00 Z"/>
</g>
<g fill="#132737" fill-opacity="1.00" stroke="None">
<path d="
M 305.00 387.00 
C 293.71 386.45 297.82 409.48 308.98 409.98 C 320.13 410.47 324.07 387.88 314.00 387.00
C 319.44 407.14 299.37 407.22 305.00 387.00 Z"/>
</g>
<g fill="#5E7485" fill-opacity="1.00" stroke="None">
<path d="
M 330.00 409.00 
C 330.00 401.67 330.00 394.33 330.00 387.00
C 330.08 390.39 326.00 406.47 330.00 409.00 Z"/>
</g>
<g fill="#0B1F2C" fill-opacity="1.00" stroke="None">
<path d="
M 330.00 409.00 
C 331.67 409.00 333.33 409.00 335.00 409.00
C 335.00 405.33 335.00 401.67 335.00 398.00
C 339.79 401.38 343.39 407.23 349.00 409.00
C 346.90 402.29 353.90 386.64 344.00 387.00
C 344.00 390.67 344.00 394.33 344.00 398.00
C 339.18 394.57 335.09 390.08 330.00 387.00
C 330.00 394.33 330.00 401.67 330.00 409.00 Z"/>
</g>
<g fill="#213440" fill-opacity="1.00" stroke="None">
<path d="
M 371.00 402.00 
C 371.31 399.48 372.33 390.03 371.00 388.00
C 367.26 384.26 366.01 403.54 360.08 403.08 C 354.16 402.62 367.35 416.73 371.00 402.00 Z"/>
</g>
<g fill="#132737" fill-opacity="1.00" stroke="None">
<path d="
M 179.00 393.00 
C 180.44 398.22 175.10 410.61 184.00 409.00
C 184.00 403.33 184.00 397.67 184.00 392.00
C 185.35 391.25 188.86 392.99 190.00 392.00
C 190.00 390.67 190.00 389.33 190.00 388.00
C 184.37 387.62 178.62 388.51 173.00 388.00
C 173.00 389.33 173.00 390.67 173.00 392.00
C 174.91 392.37 177.81 391.16 179.00 393.00 Z"/>
</g>
<g fill="#132737" fill-opacity="1.00" stroke="None">
<path d="
M 260.00 388.00 
C 255.00 388.00 250.00 388.00 245.00 388.00
C 245.00 395.00 245.00 402.00 245.00 409.00
C 250.22 407.56 262.61 412.90 261.00 404.00
C 257.33 404.00 253.67 404.00 250.00 404.00
C 248.38 396.78 260.39 403.28 258.00 396.00
C 254.75 395.78 248.37 397.50 250.00 392.00
C 253.33 392.00 256.67 392.00 260.00 392.00
C 259.56 390.92 260.58 389.00 260.00 388.00 Z"/>
</g>
<g fill="#5E7485" fill-opacity="1.00" stroke="None">
<path d="
M 371.00 402.00 
C 371.72 399.09 373.73 390.73 371.00 388.00
C 372.33 390.03 371.31 399.48 371.00 402.00 Z"/>
</g>
<g fill="#92A6AF" fill-opacity="1.00" stroke="None">
<path d="
M 188.00 417.00 
C 190.27 422.09 188.38 429.16 189.00 435.00
C 192.86 432.03 188.18 416.62 188.00 417.00 Z"/>
</g>
<g fill="#5E7485" fill-opacity="1.00" stroke="None">
<path d="
M 189.00 435.00 
C 188.38 429.16 190.27 422.09 188.00 417.00
C 185.85 421.53 188.79 430.89 189.00 435.00 Z"/>
</g>
<g fill="#5E7485" fill-opacity="1.00" stroke="None">
<path d="
M 252.00 417.00 
C 250.31 421.85 250.38 430.08 252.00 435.00
C 251.39 430.98 252.54 424.61 258.00 426.00
C 258.51 428.85 256.92 432.90 259.00 435.00
C 262.10 431.50 259.20 420.52 253.00 425.00
C 250.81 423.30 252.56 419.52 252.00 417.00 Z"/>
</g>
<g fill="#5E7485" fill-opacity="1.00" stroke="None">
<path d="
M 389.00 428.00 
C 388.45 424.49 390.16 419.76 388.00 417.00
C 385.68 422.01 387.66 429.17 387.00 435.00
C 389.96 430.47 390.20 432.56 395.00 435.00
C 390.93 431.49 390.44 427.35 395.00 424.00
C 391.58 423.05 391.78 427.19 389.00 428.00 Z"/>
</g>
<g fill="#5E7485" fill-opacity="1.00" stroke="None">
<path d="
M 113.00 435.00 
C 122.86 437.04 120.45 423.10 119.00 418.00
C 116.65 423.89 120.35 433.59 113.00 435.00 Z"/>
</g>
<g fill="#5E7485" fill-opacity="1.00" stroke="None">
<path d="
M 322.00 422.00 
C 298.51 408.54 332.82 442.74 311.00 431.00
C 335.97 445.31 303.12 412.83 322.00 422.00 Z"/>
</g>
<g fill="#5E7485" fill-opacity="1.00" stroke="None">
<path d="
M 241.00 420.00 
C 237.47 419.50 240.31 425.68 236.00 424.00
C 239.72 426.23 238.30 431.18 240.00 435.00
C 241.42 429.21 242.87 425.05 241.00 420.00 Z"/>
</g>
<g fill="#5E7485" fill-opacity="1.00" stroke="None">
<path d="
M 293.00 424.00 
C 288.69 425.58 291.34 419.51 288.00 420.00
C 286.09 425.28 287.65 429.07 289.00 435.00
C 290.78 431.39 289.26 425.99 293.00 424.00 Z"/>
</g>
<g fill="#5E7485" fill-opacity="1.00" stroke="None">
<path d="
M 139.00 430.00 
C 132.78 411.48 120.50 442.38 138.00 433.00
C 136.32 431.20 129.81 435.38 130.00 430.00
C 133.00 430.00 136.00 430.00 139.00 430.00
M 137.00 429.00 
C 125.62 431.85 133.78 421.06 137.00 429.00 Z"/>
</g>
<g fill="#5E7485" fill-opacity="1.00" stroke="None">
<path d="
M 150.00 432.00 
C 148.38 429.45 148.47 424.48 145.00 424.00
C 147.24 427.86 147.26 433.25 151.00 436.00
C 150.39 432.93 153.60 431.04 153.00 428.00
C 155.85 429.75 154.91 434.51 158.00 436.00
C 158.06 431.60 161.70 428.33 162.00 424.00
C 158.08 424.28 159.43 430.11 157.00 432.00
C 155.66 429.35 155.28 425.98 153.00 424.00
C 152.27 426.71 151.62 429.90 150.00 432.00 Z"/>
</g>
<g fill="#5E7485" fill-opacity="1.00" stroke="None">
<path d="
M 180.00 430.00 
C 173.78 411.48 161.50 442.38 179.00 433.00
C 177.32 431.20 170.80 435.38 171.00 430.00
C 174.00 430.00 177.00 430.00 180.00 430.00
M 178.00 429.00 
C 166.62 431.85 174.78 421.06 178.00 429.00 Z"/>
</g>
<g fill="#5E7485" fill-opacity="1.00" stroke="None">
<path d="
M 204.00 424.00 
C 201.61 424.01 200.15 425.01 198.00 424.00
C 198.55 427.51 196.84 432.24 199.00 435.00
C 200.17 430.98 200.16 426.00 204.00 424.00 Z"/>
</g>
<g fill="#5E7485" fill-opacity="1.00" stroke="None">
<path d="
M 214.00 431.00 
C 213.22 428.43 212.33 424.11 209.00 424.00
C 212.65 429.26 214.30 435.52 210.00 441.00
C 215.44 438.12 216.58 429.56 219.00 424.00
C 215.66 424.24 216.79 429.54 214.00 431.00 Z"/>
</g>
<g fill="#5E7485" fill-opacity="1.00" stroke="None">
<path d="
M 278.00 424.00 
C 264.84 420.00 264.87 439.00 278.00 435.00
C 278.00 431.33 278.00 427.67 278.00 424.00
M 275.00 426.00 
C 279.47 427.83 275.20 435.29 271.00 433.00 C 266.79 430.70 270.56 424.18 275.00 426.00 Z"/>
</g>
<g fill="#5E7485" fill-opacity="1.00" stroke="None">
<path d="
M 334.00 434.00 
C 346.27 438.11 341.57 418.83 331.00 424.00
C 331.62 429.51 329.74 436.25 332.00 441.00
C 334.57 439.74 331.50 435.33 334.00 434.00
M 339.00 426.00 
C 342.71 428.42 338.42 435.60 334.33 432.67 C 330.24 429.74 335.06 423.43 339.00 426.00 Z"/>
</g>
<g fill="#5E7485" fill-opacity="1.00" stroke="None">
<path d="
M 360.00 430.00 
C 354.01 411.66 341.69 442.14 359.00 433.00
C 357.32 431.20 350.81 435.38 351.00 430.00
C 354.00 430.00 357.00 430.00 360.00 430.00
M 358.00 429.00 
C 346.62 431.85 354.77 421.06 358.00 429.00 Z"/>
</g>
<g fill="#5E7485" fill-opacity="1.00" stroke="None">
<path d="
M 378.00 424.00 
C 364.84 420.00 364.87 439.00 378.00 435.00
C 378.00 431.33 378.00 427.67 378.00 424.00
M 375.00 426.00 
C 379.47 427.83 375.20 435.29 371.00 433.00 C 366.79 430.70 370.56 424.18 375.00 426.00 Z"/>
</g>
<g fill="#5E7485" fill-opacity="1.00" stroke="None">
<path d="
M 409.00 427.00 
C 405.10 417.71 397.21 432.06 408.00 431.00
C 407.89 435.95 403.31 432.86 401.00 432.00
C 408.42 440.11 412.48 428.55 403.00 426.00
C 405.60 424.49 406.56 426.70 409.00 427.00 Z"/>
</g>
<g fill="#CDE3EA" fill-opacity="1.00" stroke="None">
<path d="
M 137.00 429.00 
C 133.78 421.06 125.62 431.85 137.00 429.00 Z"/>
</g>
<g fill="#CDE3EA" fill-opacity="1.00" stroke="None">
<path d="
M 178.00 429.00 
C 174.78 421.06 166.62 431.85 178.00 429.00 Z"/>
</g>
<g fill="#E5EFF5" fill-opacity="1.00" stroke="None">
<path d="
M 275.00 426.00 
C 270.56 424.18 266.79 430.70 271.00 433.00 C 275.20 435.29 279.47 427.83 275.00 426.00 Z"/>
</g>
<g fill="#E5EFF5" fill-opacity="1.00" stroke="None">
<path d="
M 339.00 426.00 
C 335.06 423.43 330.24 429.74 334.33 432.67 C 338.42 435.60 342.71 428.42 339.00 426.00 Z"/>
</g>
<g fill="#CDE3EA" fill-opacity="1.00" stroke="None">
<path d="
M 358.00 429.00 
C 354.77 421.06 346.62 431.85 358.00 429.00 Z"/>
</g>
<g fill="#E5EFF5" fill-opacity="1.00" stroke="None">
<path d="
M 375.00 426.00 
C 370.56 424.18 366.79 430.70 371.00 433.00 C 375.20 435.29 379.47 427.83 375.00 426.00 Z"/>
</g>
</svg>